<?xml version="1.0" encoding="UTF-8" standalone="no"?>
<!-- Created with Inkscape (http://www.inkscape.org/) -->

<svg
   xmlns:dc="http://purl.org/dc/elements/1.1/"
   xmlns:cc="http://creativecommons.org/ns#"
   xmlns:rdf="http://www.w3.org/1999/02/22-rdf-syntax-ns#"
   xmlns:svg="http://www.w3.org/2000/svg"
   xmlns="http://www.w3.org/2000/svg"
   xmlns:sodipodi="http://sodipodi.sourceforge.net/DTD/sodipodi-0.dtd"
   xmlns:inkscape="http://www.inkscape.org/namespaces/inkscape"
   width="117.76924mm"
   height="149.7576mm"
   viewBox="0 0 117.76924 149.7576"
   version="1.1"
   id="svg1561"
   inkscape:version="0.92.3 (2405546, 2018-03-11)"
   sodipodi:docname="mole-pirate.svg">
  <defs
     id="defs1555" />
  <sodipodi:namedview
     id="base"
     pagecolor="#ffffff"
     bordercolor="#666666"
     borderopacity="1.0"
     inkscape:pageopacity="0.0"
     inkscape:pageshadow="2"
     inkscape:zoom="0.98994949"
     inkscape:cx="-17.346433"
     inkscape:cy="98.287693"
     inkscape:document-units="mm"
     inkscape:current-layer="g512"
     showgrid="false"
     inkscape:window-width="1920"
     inkscape:window-height="1148"
     inkscape:window-x="0"
     inkscape:window-y="0"
     inkscape:window-maximized="1" />
  <metadata
     id="metadata1558">
    <rdf:RDF>
      <cc:Work
         rdf:about="">
        <dc:format>image/svg+xml</dc:format>
        <dc:type
           rdf:resource="http://purl.org/dc/dcmitype/StillImage" />
        <dc:title></dc:title>
      </cc:Work>
    </rdf:RDF>
  </metadata>
  <g
     inkscape:label="Layer 1"
     inkscape:groupmode="layer"
     id="layer1"
     transform="translate(-52.240375,-71.911737)">
    <g
       id="g512"
       transform="matrix(0.26458333,0,0,0.26458333,31.254913,-101.28107)">
      <g
         id="g465">
        <g
           id="g502">
          <g
             id="g292">
            <path
               style="fill:#987948"
               inkscape:connector-curvature="0"
               id="path290"
               d="m 171.1,1073.5 c -1,-0.4 -1.9,-0.8 -2.9,-1.2 -0.3,0.4 -0.5,0.8 -0.8,1.2 0.5,0.6 1,1.2 1.5,1.8 0.7,-0.6 1.5,-1.2 2.2,-1.8 z" />
          </g>
          <g
             id="g296">
            <path
               style="fill:#987948"
               inkscape:connector-curvature="0"
               id="path294"
               d="m 367.1,1079.2 c -2.7,4.3 -5.6,8.1 -8.6,11.6 1.5,1.4 3,2.8 4.5,4.3 1.3,0 2.6,0 3.9,0.1 2.3,0.1 4.7,0.6 6.3,2.1 2.3,2.3 2,6.3 0.2,9.1 13.9,16.6 26,37.2 34.6,59.7 8.5,-3.8 16.7,-9.2 23.4,-15.8 -9.2,-16.7 -20.7,-31.9 -35.3,-44.5 16.7,-4.4 32.9,-11.8 47.2,-21.5 -2.5,-4.5 -5.1,-8.9 -7.8,-13.2 -26.7,12.1 -53.2,16.1 -68.4,8.1 z" />
          </g>
          <g
             id="g300">
            <path
               style="fill:#987948"
               inkscape:connector-curvature="0"
               id="path298"
               d="m 208.6,1103.2 c -10.6,15.4 -20,32 -27.4,49.3 6.4,5.4 14,9.6 22.2,12.5 6.7,-18.6 15.4,-35.9 25.4,-50.7 -2.3,-0.6 -4.4,-1.7 -4.7,-3.8 -0.5,-2.8 2.3,-5 4.9,-6.3 3.2,-1.6 6.7,-2.8 10.2,-3.5 2.5,-3 5.1,-5.9 7.8,-8.5 -3.5,-3.8 -6.5,-7.9 -8.9,-12.3 -15.5,7.4 -41,4.3 -66.9,-6.3 -0.7,0.7 -1.3,1.4 -1.8,2.3 10.3,12.1 25.6,21.3 39.2,27.3 z" />
          </g>
          <g
             id="g304">
            <path
               style="fill:#ad8852"
               inkscape:connector-curvature="0"
               id="path302"
               d="m 431.4,1150.2 c -6.7,6.5 -14.9,12 -23.4,15.8 -6.1,2.7 -12.4,4.6 -18.4,5.4 -5.7,0.7 -11.6,0.5 -17.4,0.6 -5.1,0.1 -10.2,0.4 -15.1,1.9 -2.2,0.7 -4.4,1.7 -6.3,3.1 -7.4,5 -12.2,14 -8.1,21.5 -9.2,2.4 -15.6,12.3 -14.5,21.7 37.3,-1.3 72.2,-5.2 102.9,-11.2 6.8,-6.4 12.4,-14.2 16.3,-23.5 2.6,6.4 1.3,12.8 0,19.3 6.4,-5.1 10.3,-11.6 12.8,-19.3 0,5.5 0.7,11 1.5,16.5 2,-0.5 4,-1.1 5.9,-1.6 14.5,-27.8 14.6,-60.9 7.8,-92.1 -11.4,-12.5 -24.1,-23.8 -37.2,-34.4 4.1,3.3 6.8,9.6 8.3,16.7 -1.1,-2 -2.1,-4.1 -3.2,-6 -14.3,9.6 -30.4,17.1 -47.2,21.5 14.5,12.3 26.1,27.4 35.3,44.1 z" />
          </g>
          <g
             id="g308">
            <path
               style="fill:#ffd684"
               inkscape:connector-curvature="0"
               id="path306"
               d="m 253.8,1099.9 c -0.8,-0.1 -1.7,-0.2 -2.5,-0.2 0.8,0.5 1.6,0.6 2.5,0.2 z" />
          </g>
          <g
             id="g312">
            <path
               style="fill:#ffd684"
               inkscape:connector-curvature="0"
               id="path310"
               d="m 274.5,1124.5 c 1.5,-0.4 3,-0.7 4.5,-1.1 1.3,-0.3 2.7,-0.5 4.1,-0.7 -3.8,-2.6 -7.8,-4.1 -15.4,-4.8 -12,-1.1 -23.9,-2.1 -35.9,-3.2 -0.9,-0.1 -1.9,-0.2 -2.8,-0.4 -10.1,14.8 -18.7,32.1 -25.4,50.7 10.2,3.6 21.3,5.3 32.2,5.4 0.3,-8.8 2.3,-17.3 7.2,-24.7 6.9,-11 18.9,-17.9 31.5,-21.2 z" />
          </g>
          <g
             id="g316">
            <path
               style="fill:#ffd684"
               inkscape:connector-curvature="0"
               id="path314"
               d="m 365.4,1112.3 c -6,3.1 -14.2,7.8 -23.1,12.1 4.6,1.5 9,3.6 12.8,6.7 11.8,9.5 15.8,25.5 17.1,40.8 5.8,-0.1 11.7,0.2 17.4,-0.6 6,-0.8 12.3,-2.6 18.4,-5.4 -8.7,-22.5 -20.7,-43.1 -34.6,-59.7 0,0 -0.1,0.1 -0.1,0.1 -1.9,2.8 -5,4.5 -7.9,6 z" />
          </g>
          <g
             id="g320">
            <path
               style="fill:#ffd684"
               inkscape:connector-curvature="0"
               id="path318"
               d="m 239.2,1100.6 c 4,-0.8 8,-1.2 12.1,-0.9 -1.6,-1 -2.7,-3.4 -2.2,-5.5 -0.7,-0.7 -1.4,-1.4 -2.1,-2.1 -2.7,2.7 -5.3,5.5 -7.8,8.5 z" />
          </g>
          <g
             id="g324">
            <path
               style="fill:#ffd684"
               inkscape:connector-curvature="0"
               id="path322"
               d="m 358.5,1090.7 c -1.8,2.1 -3.7,4 -5.6,5.8 3.3,-0.9 6.7,-1.4 10.1,-1.5 -1.5,-1.5 -3,-2.9 -4.5,-4.3 z" />
          </g>
          <g
             id="g328">
            <path
               style="fill:#0e8341"
               inkscape:connector-curvature="0"
               id="path326"
               d="m 251.3,1099.7 c 0.8,0.1 1.7,0.1 2.5,0.2 -0.9,0.4 -1.7,0.3 -2.5,-0.2 -4,-0.3 -8.1,0.1 -12.1,0.9 -3.5,0.8 -7,1.9 -10.2,3.5 -2.6,1.3 -5.4,3.5 -4.9,6.3 0.4,2.2 2.5,3.3 4.7,3.8 0.9,0.2 1.9,0.4 2.8,0.4 12,1.1 23.9,2.1 35.9,3.2 7.6,0.7 11.6,2.2 15.4,4.8 9.9,-1.6 20.1,-1.7 30.1,-1.6 2.5,0 5,0.1 7.5,0.2 7.4,0.3 14.8,1 21.6,3.2 9,-4.3 17.2,-9 23.1,-12.1 3,-1.5 6,-3.2 7.9,-5.9 0,0 0.1,-0.1 0.1,-0.1 1.8,-2.7 2.1,-6.8 -0.2,-9.1 -1.6,-1.6 -4,-2 -6.3,-2.1 -1.3,-0.1 -2.6,-0.1 -3.9,-0.1 -3.4,0.1 -6.8,0.6 -10.1,1.5 -32.5,30.1 -79,22 -103.8,-2.3 -0.3,2.1 0.8,4.6 2.4,5.5 z" />
          </g>
          <g
             id="g332">
            <path
               style="fill:#f4782d"
               inkscape:connector-curvature="0"
               id="path330"
               d="m 279,1123.4 c -1.5,0.3 -3,0.7 -4.5,1.1 -12.5,3.3 -24.6,10.2 -31.7,21.1 -4.8,7.5 -6.9,15.9 -7.2,24.7 0.9,0 1.7,0 2.6,0 6.3,-0.1 12.8,-0.8 18.9,0.3 0.4,-3.6 0.9,-7.3 1.5,-11 2.6,-13.9 9.9,-26.6 20.4,-36.2 z" />
          </g>
          <g
             id="g336">
            <path
               style="fill:#db6d28"
               inkscape:connector-curvature="0"
               id="path334"
               d="m 320.6,1121.3 c -2.5,-0.1 -5,-0.1 -7.5,-0.2 -10.1,-0.1 -20.2,0 -30.1,1.6 -1.4,0.2 -2.7,0.5 -4.1,0.7 -10.5,9.6 -17.8,22.3 -20.4,36.2 -0.6,3.7 -1.1,7.4 -1.5,11 2.1,0.4 4.1,0.9 6.1,1.8 7.7,3.4 13.3,13.5 8.4,20.4 5.6,0.2 11,3.4 14.2,8 1.3,1.9 2.3,4 2.8,6.3 1,4.5 -0.1,9.4 -2.5,13.3 5.2,0.1 10.5,0.2 15.8,0.2 8.9,0 17.6,-0.2 26.2,-0.4 -1.1,-9.3 5.3,-19.3 14.5,-21.7 -4.1,-7.5 0.7,-16.5 8.1,-21.5 -4.9,-21.1 -14.3,-40.5 -30,-55.7 z" />
          </g>
          <g
             id="g340">
            <path
               style="fill:#f4782d"
               inkscape:connector-curvature="0"
               id="path338"
               d="m 355,1131.1 c -3.8,-3.1 -8.2,-5.2 -12.8,-6.7 -6.8,-2.2 -14.2,-2.9 -21.6,-3.2 15.7,15.3 25,34.6 30,55.6 2,-1.3 4.1,-2.4 6.3,-3.1 4.9,-1.5 10,-1.8 15.1,-1.9 -1.2,-15.2 -5.1,-31.1 -17,-40.7 z" />
          </g>
          <g
             id="g344">
            <path
               style="fill:#ad8852"
               inkscape:connector-curvature="0"
               id="path342"
               d="m 125.1,1191.8 c 1.3,-6.4 2.6,-14.1 3.9,-20.5 5.1,9 10.3,16.7 18,23.1 0,-5.1 2.6,-9 1.3,-14.1 35.7,30.5 93.8,42 137.6,20.6 -3.2,-4.6 -8.6,-7.8 -14.2,-8 4.9,-6.9 -0.7,-17 -8.4,-20.4 -2,-0.9 -4,-1.4 -6.1,-1.8 -6.1,-1.1 -12.6,-0.4 -18.9,-0.3 -0.9,0 -1.7,0 -2.6,0 -10.9,-0.1 -22,-1.8 -32.2,-5.4 -8.2,-2.9 -15.8,-7 -22.2,-12.5 7.4,-17.4 16.8,-33.9 27.4,-49.3 -13.6,-6 -28.9,-15.2 -39.3,-27.4 0.6,-0.8 1.2,-1.6 1.8,-2.3 0,0 -0.1,0 -0.1,0 -0.7,0.6 -1.4,1.2 -2.2,1.8 -0.5,-0.6 -1,-1.2 -1.5,-1.8 -1.2,2 -2.4,4 -3.6,6.1 -8.4,7.1 -16.5,14.6 -24.1,22.5 -8.7,9 -17.9,19.7 -25.4,31.4 -2.4,20 0.3,40.9 10.8,58.3 z" />
          </g>
          <g
             id="g348">
            <path
               style="fill:#987948"
               inkscape:connector-curvature="0"
               id="path346"
               d="m 286,1220.4 c 2.4,-3.9 3.5,-8.8 2.5,-13.3 -0.5,-2.3 -1.5,-4.4 -2.8,-6.3 -43.8,21.4 -101.9,9.9 -137.6,-20.6 1.3,5.1 -1.3,9 -1.3,14.1 -7.7,-6.4 -12.8,-14.1 -18,-23.1 -1.3,6.4 -2.6,14.1 -3.9,20.5 -10.4,-17.4 -13.2,-38.3 -10.7,-58.3 -10.6,16.5 -17.7,34.9 -15.1,53.6 42.9,19 110.3,31.8 186.9,33.4 z" />
          </g>
          <g
             id="g352">
            <path
               style="fill:#987948"
               inkscape:connector-curvature="0"
               id="path350"
               d="m 460.1,1185.3 c -2.6,7.7 -6.4,14.1 -12.8,19.3 1.3,-6.4 2.6,-12.8 0,-19.3 -3.9,9.3 -9.5,17.1 -16.3,23.5 10.8,-2.1 21,-4.5 30.6,-7 -0.9,-5.5 -1.5,-11 -1.5,-16.5 z" />
          </g>
          <g
             id="g356">
            <path
               style="fill:#987948"
               inkscape:connector-curvature="0"
               id="path354"
               d="m 467.4,1200.2 c 16.8,-4.8 31.6,-10.3 43.9,-16.4 1,-22.9 -11.6,-46 -26.1,-64.1 -3.2,-4 -6.6,-7.9 -10,-11.7 6.8,31.3 6.8,64.4 -7.8,92.2 z" />
          </g>
          <g
             id="g360">
            <path
               style="fill:#ffd684"
               inkscape:connector-curvature="0"
               id="path358"
               d="m 196.5,781.5 c -10.9,-11.7 -38.9,-19.2 -48.7,4.1 -10.3,24.2 10.6,40.4 16.1,44.2 7.6,-18.3 18.7,-34.7 32.6,-48.3 z" />
          </g>
          <g
             id="g364">
            <path
               style="fill:#ffd684"
               inkscape:connector-curvature="0"
               id="path362"
               d="m 438.2,830.5 c 7,-5.2 24.2,-20.8 14.6,-43.1 -9.5,-22.2 -35.5,-16.3 -47.2,-5.6 13.9,13.8 25,30.3 32.6,48.7 z" />
          </g>
          <g
             id="g368">
            <path
               style="fill:#c0975c"
               inkscape:connector-curvature="0"
               id="path366"
               d="m 494.6,907.5 c -2.2,-0.3 1.4,-2.2 -2.1,-3.2 -11.6,-13.8 -26.6,-24.6 -43.8,-31 -1.1,-12.1 -3.7,-23.7 -7.5,-34.7 3.6,-2.4 8,-5.8 13.1,-10.6 23.9,-21.8 4.4,-64.6 -23.1,-68 -14.4,-1.8 -25.4,6.8 -32.7,15.3 -26.1,-22.9 -60.3,-36.7 -97.7,-36.7 -37.3,0 -71.5,13.8 -97.6,36.6 -7.2,-9.1 -18.7,-18.9 -34,-17 -27.5,3.4 -47,46.2 -23.1,68 5.9,5.4 10.8,9.1 14.7,11.5 -4,11.3 -6.6,23.2 -7.8,35.6 -17.6,6.6 -32.9,17.7 -44.6,32 -2,0.5 -3.3,5.6 -4.7,5.8 -18.3,27.3 -31.3,55.6 -20.4,97.9 0.6,-4.8 7.8,-7.2 7.8,-7.2 0,0 -4.9,21.4 2.5,27 -0.1,-4.5 4.8,-7.8 4.9,-6.2 2.8,16.3 44.9,35.5 46.9,41.8 0.7,-0.9 0.5,-2.5 -0.1,-4.1 7.5,4.6 15.2,8.7 23,12 1,0.4 1.9,0.8 2.9,1.2 0,0 0.1,0 0.1,0 25.9,10.7 51.5,13.7 66.9,6.3 2.4,4.4 5.4,8.5 8.9,12.3 0.7,0.7 1.4,1.4 2.1,2.1 24.8,24.3 71.3,32.4 103.8,2.3 1.9,-1.8 3.8,-3.7 5.6,-5.8 3.1,-3.5 5.9,-7.3 8.6,-11.6 15.2,8 41.7,4 68.3,-8.1 8.7,-4 17.3,-8.8 25.6,-14.3 -1.3,2.2 -3.2,5.9 -1.9,7.5 1.9,-6.2 44.1,-25.5 46.9,-41.8 0.2,-1.5 5,1.8 4.9,6.2 7.4,-5.6 2.5,-27 2.5,-27 0,0 7.2,2.5 7.8,7.2 10.8,-42.2 -8.4,-74.1 -26.7,-101.3 z m -114.4,7.9 c -14.2,4.1 -30.7,-9.7 -36.9,-31 -6.2,-21.2 0.3,-41.8 14.4,-46 14.2,-4.1 30.7,9.7 36.9,31 6.3,21.3 -0.2,41.8 -14.4,46 z m 72.6,-128 c 9.5,22.3 -7.6,37.9 -14.6,43.1 -7.6,-18.4 -18.7,-34.9 -32.6,-48.7 11.8,-10.8 37.8,-16.6 47.2,5.6 z m -95,8.6 c 12.4,4.7 24,14.8 25.2,28 -4.2,-4.3 -8.5,-8.6 -13.5,-12 -10.2,-6.9 -24.3,-12.6 -36.6,-12.5 8.2,-4.7 15.7,-7 24.9,-3.5 z m -122.6,3.1 c 8.5,-5.5 19.2,-7.7 29.2,-6.1 l 5.9,6.4 c -19.8,-0.2 -35.5,15.2 -52.5,23.9 2.5,-9.8 8.9,-18.6 17.4,-24.2 z m 5.2,39.4 c 14.2,4.1 20.7,24.7 14.4,46 -6.2,21.2 -22.7,35.1 -36.9,31 -14.2,-4.1 -20.7,-24.7 -14.4,-46 6.2,-21.3 22.8,-35.2 36.9,-31 z m -92.7,-53 c 9.9,-23.2 37.9,-15.7 48.7,-4.1 -13.8,13.7 -25,30 -32.6,48.2 -5.5,-3.7 -26.4,-19.9 -16.1,-44.1 z m 365.9,190.6 c -25.5,-2.5 -50.6,-4.6 -76.3,-2.6 -7.5,0.6 -14.9,1.5 -22.3,2.6 0.5,2.8 0.8,5.6 0.8,8.4 0,5.8 -0.8,11.5 -2.3,16.8 2.2,-0.2 4.4,-0.4 6.5,-0.6 14.1,-1 29.5,-1.2 43.3,2.4 0.7,0.2 0.5,1.3 -0.2,1.2 -14.1,-0.8 -27.8,-2.6 -41.9,-1.7 -2.8,0.2 -5.6,0.4 -8.4,0.8 -1.6,4.9 -3.8,9.6 -6.5,13.9 -7.1,19 -19.6,35.9 -35.9,47.9 1.8,-3.2 1.5,-7.5 -0.7,-10.5 -7,5.3 -14,10.7 -21,16 2.3,-3.4 3.3,-7.7 2.7,-11.8 -9.3,13.3 -21.2,25.9 -37,29.8 -16.4,4.1 -33.5,-2.3 -48.8,-9.5 -12.4,-5.8 -24.4,-12.3 -36.1,-19.4 1.4,3.6 1.6,7.7 0.8,11.5 -13.4,-13 -25.3,-27.6 -35.3,-43.3 -3.6,-5.6 -7,-12.3 -7.5,-18.7 -0.2,-0.5 -0.5,-1.1 -0.7,-1.6 -7.2,1.2 -14.2,3.2 -20.3,4.6 -15.7,3.9 -30.3,10.3 -45.5,15.5 -1.5,0.5 -2.2,-1.7 -1,-2.4 15.1,-9.4 33.9,-14.6 51.2,-18.4 4.5,-1 9.3,-2.1 14.3,-3 -2.1,-6.2 -3.2,-12.8 -3.2,-19.6 0,-1.1 0,-2.1 0.1,-3.2 -5.1,0.2 -10.2,0.5 -15.3,1.1 -24.3,2.7 -47.1,10.4 -69.6,19.8 -1.2,0.5 -1.9,-1.4 -0.9,-2.1 24.9,-15.2 55.8,-23 86.3,-23.6 1.4,-8.1 4.9,-16 9.8,-23.4 -25.8,-7.7 -51.8,-12.7 -78.9,-15.9 -1.4,-0.2 -1.4,-2.2 0,-2.2 27.4,-0.3 55.5,4.9 81.6,14.2 14.6,-19.4 38.9,-33.9 60.9,-33.9 0.4,0 0.9,0 1.3,0 0,0 0,0 0,0 8.8,-11 23.8,-18.2 40.8,-18.2 17,0 31.9,7.2 40.8,18.2 0,0 0,0 0,0.1 0.8,0 1.7,-0.1 2.5,-0.1 21.9,0 46.1,14.4 60.7,33.7 13.2,-5 27.3,-8.3 40.8,-10.4 20.2,-3.2 41,-4.1 61.1,-0.2 1.4,0.3 1,2.5 -0.3,2.4 -20.8,-1.4 -41.5,-1.8 -62.1,1.8 -12.8,2.2 -24.8,6 -36.7,10.4 4.2,6.3 7.3,13 9,19.9 6.9,-1.1 13.7,-1.9 20.6,-2.5 26,-2.3 53.3,-2.2 78.9,3.6 1.3,0.4 1,2.3 -0.1,2.2 z" />
          </g>
          <g
             id="g372">
            <path
               style="fill:#ad8852"
               inkscape:connector-curvature="0"
               id="path370"
               d="m 354,1046.3 c -11,0 -21.3,-2.9 -30.2,-7.9 l -2.4,20.1 c -0.6,5.3 -4.4,9.7 -9.7,9.7 h -3.2 c -4.5,0 -8.2,-3.2 -9.3,-7.4 -1.1,4.2 -4.8,7.4 -9.3,7.4 h -3.2 c -5.3,0 -9,-4.4 -9.7,-9.7 l -2.4,-20.1 c -8.9,5 -19.2,7.9 -30.2,7.9 -25.3,0 -47,-15.2 -56.6,-36.9 0.5,6.4 3.9,13.1 7.5,18.7 10,15.7 21.9,30.3 35.3,43.3 0.8,-3.8 0.6,-7.8 -0.8,-11.5 11.7,7.1 23.7,13.5 36.1,19.4 15.3,7.2 32.4,13.5 48.8,9.5 15.7,-3.9 27.7,-16.6 37,-29.8 0.6,4.1 -0.3,8.4 -2.7,11.8 7,-5.3 14,-10.7 21,-16 2.2,3 2.5,7.3 0.7,10.5 16.3,-12 28.9,-29 35.9,-47.9 -11.2,17.3 -30.5,28.9 -52.6,28.9 z" />
          </g>
          <g
             id="g376">
            <path
               style="fill:#1c1b15"
               inkscape:connector-curvature="0"
               id="path374"
               d="m 264.5,793.1 c -10,-1.7 -20.7,0.5 -29.2,6.1 -8.5,5.5 -14.9,14.4 -17.5,24.2 17,-8.7 32.7,-24 52.5,-23.9 z" />
          </g>
          <g
             id="g380">
            <path
               style="fill:#1c1b15"
               inkscape:connector-curvature="0"
               id="path378"
               d="m 383.1,824 c -1.2,-13.2 -12.9,-23.3 -25.2,-28 -9.2,-3.5 -16.7,-1.2 -24.9,3.5 12.4,-0.1 26.5,5.5 36.6,12.5 5,3.4 9.2,7.7 13.5,12 z" />
          </g>
          <g
             id="g384">
            <path
               style="fill:#fffdfa"
               inkscape:connector-curvature="0"
               id="path382"
               d="m 308.4,1068.2 h 3.2 c 5.3,0 9,-4.4 9.7,-9.7 l 2.4,-20.1 c -9.1,-5.1 -16.8,-12.5 -22.3,-21.3 l -2.4,43.7 c 1.2,4.2 4.9,7.4 9.4,7.4 z" />
          </g>
          <g
             id="g388">
            <path
               style="fill:#fffdfa"
               inkscape:connector-curvature="0"
               id="path386"
               d="m 286.5,1068.2 h 3.2 c 4.5,0 8.2,-3.2 9.3,-7.4 l -3,-42.8 c -5.5,8.4 -12.9,15.5 -21.7,20.4 l 2.4,20.1 c 0.8,5.3 4.5,9.7 9.8,9.7 z" />
          </g>
          <g
             id="g392">
            <path
               style="fill:#b2b2b2"
               inkscape:connector-curvature="0"
               id="path390"
               d="m 301.5,1017.1 c -0.9,-1.4 -1.7,-2.8 -2.4,-4.2 -0.9,1.8 -1.9,3.5 -3,5.1 l 3,42.8 z" />
          </g>
          <g
             id="g396">
            <path
               style="fill:#ffd684"
               inkscape:connector-curvature="0"
               id="path394"
               d="m 397,979.4 c -10.6,2.2 -21.1,6.3 -31.7,8.5 -0.6,3.1 -2.7,5.4 -4.9,5.2 -2.4,-0.2 -4.1,-3.3 -3.8,-6.8 0.3,-3.5 2.6,-6.2 5,-6 1.8,0.2 3.2,1.9 3.7,4.2 10,-4.3 21.8,-6.3 32,-8.5 5.6,-1.2 11.3,-2.2 17,-3.1 -1.7,-6.9 -4.9,-13.6 -9,-19.9 -5.4,2 -10.7,4.1 -16.1,6.3 0.3,2.4 -0.6,4.6 -2.3,5.3 -2.3,0.9 -5.2,-1 -6.5,-4.3 -1.3,-3.3 -0.5,-6.7 1.7,-7.6 1.9,-0.8 4.3,0.5 5.8,3 4.7,-2.5 9.6,-4.6 14.6,-6.5 -14.6,-19.3 -38.8,-33.7 -60.7,-33.7 -0.8,0 -1.7,0 -2.5,0.1 2.5,5 1.9,9.3 -0.8,13.7 -5.7,9.4 -26,29.7 -40,31.3 -14,-1.6 -34.3,-21.9 -40,-31.3 -2.7,-4.4 -3.3,-8.7 -0.8,-13.7 -0.4,0 -0.9,0 -1.3,0 -22,0 -46.3,14.5 -60.9,33.9 4.7,1.7 9.3,3.5 13.9,5.4 1.5,-1.8 3.5,-2.7 5.1,-2 1.7,0.7 2.6,2.9 2.3,5.3 1.4,0.7 0.5,2.9 -0.8,2.8 -1.4,3 -4.1,4.7 -6.2,3.8 -2,-0.8 -2.9,-3.7 -2,-6.7 -5,-1.7 -9.9,-3.3 -14.9,-4.8 -4.9,7.4 -8.3,15.3 -9.8,23.4 16.8,-0.3 33.6,1.5 49.3,5.4 0.7,-0.9 1.6,-1.6 2.6,-1.7 1.8,-0.2 3.6,1.3 4.5,3.6 0.3,0.1 0.6,0.2 0.9,0.3 1.7,0.5 1.2,2.9 -0.3,3 0,3.1 -1.6,5.7 -3.8,5.9 -2.4,0.2 -4.7,-2.4 -5,-6 -0.1,-0.6 -0.1,-1.1 0,-1.7 -16.1,-3 -32.4,-4.6 -48.7,-4.1 -0.1,1.1 -0.1,2.1 -0.1,3.2 0,6.9 1.1,13.4 3.2,19.6 9.2,-1.6 18.7,-2.1 27,1.1 0.4,-2.5 1.8,-4.3 3.7,-4.5 2.4,-0.2 4.7,2.4 5,6 0.3,3.5 -1.3,6.6 -3.8,6.8 -2,0.2 -3.9,-1.6 -4.7,-4.2 -7.7,-3.3 -16.9,-3 -25.9,-1.5 0.2,0.5 0.4,1.1 0.7,1.6 9.6,21.7 31.3,36.9 56.6,36.9 11,0 21.3,-2.9 30.2,-7.9 8.8,-4.9 16.3,-12 21.7,-20.4 1.1,-1.7 2.1,-3.4 3,-5.1 0.8,1.5 1.6,2.9 2.4,4.2 5.5,8.8 13.2,16.2 22.3,21.3 8.9,5 19.2,7.9 30.2,7.9 22.1,0 41.4,-11.6 52.4,-29 2.7,-4.3 4.9,-9 6.5,-13.9 -9.8,1.1 -19.4,2.9 -28.9,5.4 -0.7,2.8 -2.7,4.8 -4.8,4.6 -2.4,-0.2 -4.1,-3.3 -3.8,-6.8 0.3,-3.5 2.6,-6.2 5,-6 2.3,0.2 3.9,3 3.8,6.2 9.6,-2.7 19.4,-4.5 29.3,-5.6 1.5,-5.4 2.3,-11 2.3,-16.8 0,-2.8 -0.3,-5.6 -0.8,-8.4 -6.1,0.9 -12.1,2 -18.1,3.3 z" />
          </g>
          <g
             id="g400">
            <path
               style="fill:#534121"
               inkscape:connector-curvature="0"
               id="path398"
               d="m 258.5,929.1 c 5.7,9.4 26,29.7 40,31.3 14,-1.6 34.3,-21.9 40,-31.3 2.7,-4.4 3.2,-8.7 0.8,-13.7 0,0 0,0 0,-0.1 -8.8,-11 -23.8,-18.2 -40.8,-18.2 -17,0 -31.9,7.2 -40.8,18.2 0,0 0,0 0,0 -2.5,5.1 -1.9,9.4 0.8,13.8 z M 289.6,903 c 7.9,-0.8 14.5,0.5 14.7,2.8 0.1,2.4 -6.2,4.9 -14.1,5.7 -7.9,0.8 -14.5,-0.5 -14.7,-2.8 -0.2,-2.4 6.1,-4.9 14.1,-5.7 z" />
          </g>
          <g
             id="g404">
            <path
               style="fill:#ffffff"
               inkscape:connector-curvature="0"
               id="path402"
               d="m 290.1,911.5 c 7.9,-0.8 14.3,-3.4 14.1,-5.7 -0.1,-2.4 -6.7,-3.6 -14.7,-2.8 -7.9,0.8 -14.3,3.4 -14.1,5.7 0.2,2.4 6.8,3.6 14.7,2.8 z" />
          </g>
          <g
             id="g408">
            <path
               style="fill:#ffffff"
               inkscape:connector-curvature="0"
               id="path406"
               d="m 218,915.4 c 14.2,4.1 30.7,-9.7 36.9,-31 6.2,-21.2 -0.3,-41.8 -14.4,-46 -14.2,-4.1 -30.7,9.7 -36.9,31 -6.3,21.3 0.2,41.8 14.4,46 z m -7.2,-41 c 5.9,-13.8 18.1,-21.8 27.3,-17.9 9.2,3.9 11.9,18.2 6,32 -5.9,13.8 -18.1,21.8 -27.3,17.9 -9.1,-3.9 -11.8,-18.3 -6,-32 z" />
          </g>
          <g
             id="g412">
            <path
               style="fill:#534121"
               inkscape:connector-curvature="0"
               id="path410"
               d="m 216.9,906.4 c 9.2,3.9 21.4,-4.1 27.3,-17.9 5.9,-13.8 3.1,-28.1 -6,-32 -9.2,-3.9 -21.4,4.1 -27.3,17.9 -5.9,13.7 -3.2,28.1 6,32 z m -3.1,-30.7 c 4.8,-11.3 14.8,-17.8 22.3,-14.6 7.5,3.2 9.7,14.9 5,26.2 -4.8,11.3 -14.8,17.8 -22.3,14.6 -7.5,-3.2 -9.8,-15 -5,-26.2 z" />
          </g>
          <g
             id="g416">
            <path
               style="fill:#c0975c"
               inkscape:connector-curvature="0"
               id="path414"
               d="m 218.8,901.9 c 7.5,3.2 17.5,-3.3 22.3,-14.6 4.8,-11.3 2.6,-23 -5,-26.2 -7.5,-3.2 -17.5,3.3 -22.3,14.6 -4.8,11.2 -2.5,23 5,26.2 z m 4.5,-32.6 c 2.1,0 3.9,0.9 5.2,2.4 1.9,-0.7 3.8,-0.8 5.6,-0.1 4.8,2.1 6.3,9.6 3.2,16.9 -3.1,7.2 -9.5,11.5 -14.3,9.4 -4.7,-2 -6.2,-9.2 -3.4,-16.3 -1.8,-1.2 -2.9,-3.3 -2.9,-5.6 -0.1,-3.7 2.9,-6.7 6.6,-6.7 z" />
          </g>
          <g
             id="g420">
            <path
               style="fill:#1c1b15"
               inkscape:connector-curvature="0"
               id="path418"
               d="m 223.3,882.8 c -1.4,0 -2.7,-0.4 -3.8,-1.2 -2.8,7.1 -1.3,14.3 3.4,16.3 4.8,2.1 11.3,-2.1 14.3,-9.4 3.1,-7.2 1.7,-14.8 -3.2,-16.9 -1.7,-0.7 -3.7,-0.7 -5.6,0.1 1,1.2 1.6,2.7 1.6,4.3 0.1,3.8 -3,6.8 -6.7,6.8 z" />
          </g>
          <g
             id="g424">
            <path
               style="fill:#ffffff"
               inkscape:connector-curvature="0"
               id="path422"
               d="m 219.5,881.6 c 1.1,0.7 2.4,1.2 3.8,1.2 3.7,0 6.8,-3 6.8,-6.8 0,-1.7 -0.6,-3.2 -1.6,-4.3 -1.2,-1.5 -3.1,-2.4 -5.2,-2.4 -3.7,0 -6.8,3 -6.8,6.8 0.1,2.2 1.2,4.3 3,5.5 z" />
          </g>
          <g
             id="g428">
            <path
               style="fill:#ffffff"
               inkscape:connector-curvature="0"
               id="path426"
               d="m 357.7,838.5 c -14.2,4.1 -20.7,24.7 -14.4,46 6.2,21.2 22.7,35.1 36.9,31 14.2,-4.1 20.7,-24.7 14.4,-46 -6.2,-21.3 -22.7,-35.2 -36.9,-31 z m 23.6,67.9 c -9.2,3.9 -21.4,-4.1 -27.3,-17.9 -5.9,-13.8 -3.1,-28.1 6,-32 9.2,-3.9 21.4,4.1 27.3,17.9 5.9,13.7 3.2,28.1 -6,32 z" />
          </g>
          <g
             id="g432">
            <path
               style="fill:#534121"
               inkscape:connector-curvature="0"
               id="path430"
               d="m 360.1,856.5 c -9.2,3.9 -11.9,18.2 -6,32 5.9,13.8 18.1,21.8 27.3,17.9 9.2,-3.9 11.9,-18.2 6,-32 -5.9,-13.8 -18.1,-21.8 -27.3,-17.9 z m 19.3,45.4 c -7.5,3.2 -17.5,-3.3 -22.3,-14.6 -4.8,-11.3 -2.6,-23 5,-26.2 7.5,-3.2 17.5,3.3 22.3,14.6 4.7,11.2 2.5,23 -5,26.2 z" />
          </g>
          <g
             id="g436">
            <path
               style="fill:#c0975c"
               inkscape:connector-curvature="0"
               id="path434"
               d="m 362,861 c -7.5,3.2 -9.7,14.9 -5,26.2 4.8,11.3 14.8,17.8 22.3,14.6 7.5,-3.2 9.7,-14.9 5,-26.2 C 379.5,864.4 369.5,857.8 362,861 Z m 19.6,15 c 0,2.3 -1.2,4.4 -2.9,5.6 2.8,7.1 1.3,14.3 -3.4,16.3 -4.8,2.1 -11.3,-2.1 -14.3,-9.4 -3.1,-7.2 -1.7,-14.8 3.2,-16.9 1.7,-0.7 3.7,-0.7 5.6,0.1 1.2,-1.5 3.1,-2.4 5.2,-2.4 3.6,0 6.6,3 6.6,6.7 z" />
          </g>
          <g
             id="g440">
            <path
               style="fill:#1c1b15"
               inkscape:connector-curvature="0"
               id="path438"
               d="m 368.1,876 c 0,-1.7 0.6,-3.2 1.6,-4.3 -1.9,-0.7 -3.8,-0.8 -5.6,-0.1 -4.8,2.1 -6.3,9.6 -3.2,16.9 3.1,7.2 9.5,11.5 14.3,9.4 4.7,-2 6.2,-9.2 3.4,-16.3 -1.1,0.7 -2.4,1.2 -3.8,1.2 -3.7,0 -6.7,-3 -6.7,-6.8 z" />
          </g>
          <g
             id="g444">
            <path
               style="fill:#ffffff"
               inkscape:connector-curvature="0"
               id="path442"
               d="m 369.7,871.7 c -1,1.2 -1.6,2.7 -1.6,4.3 0,3.7 3,6.8 6.8,6.8 1.4,0 2.7,-0.4 3.8,-1.2 1.8,-1.2 2.9,-3.3 2.9,-5.6 0,-3.7 -3,-6.8 -6.8,-6.8 -2,0.1 -3.9,1 -5.1,2.5 z" />
          </g>
          <g
             id="g448">
            <path
               style="fill:#c0975c"
               inkscape:connector-curvature="0"
               id="path446"
               d="m 207.7,957.9 c -0.8,3 0,5.8 2,6.7 2.1,0.9 4.8,-0.8 6.2,-3.8 -0.1,0 -0.3,0 -0.4,-0.1 -2.5,-1 -5.1,-1.9 -7.8,-2.8 z" />
          </g>
          <g
             id="g452">
            <path
               style="fill:#c0975c"
               inkscape:connector-curvature="0"
               id="path450"
               d="m 216.8,957.9 c 0.3,-2.5 -0.6,-4.6 -2.3,-5.3 -1.7,-0.7 -3.7,0.2 -5.1,2 2.5,1.1 4.9,2.2 7.4,3.3 0,0 0,0 0,0 z" />
          </g>
          <g
             id="g456">
            <path
               style="fill:#c0975c"
               inkscape:connector-curvature="0"
               id="path454"
               d="m 235,980.3 c -1,0.1 -1.9,0.7 -2.6,1.7 2.4,0.6 4.7,1.2 7.1,1.9 -1,-2.3 -2.7,-3.8 -4.5,-3.6 z" />
          </g>
          <g
             id="g460">
            <path
               style="fill:#c0975c"
               inkscape:connector-curvature="0"
               id="path458"
               d="m 239.5,987.1 c -2.8,-0.6 -5.5,-1.2 -8.3,-1.7 0,0.5 0,1.1 0,1.7 0.3,3.5 2.6,6.2 5,6 2.2,-0.2 3.8,-2.8 3.8,-5.9 -0.1,-0.1 -0.3,-0.1 -0.5,-0.1 z" />
          </g>
          <g
             id="g464">
            <path
               style="fill:#c0975c"
               inkscape:connector-curvature="0"
               id="path462"
               d="m 214.8,1010.2 c -0.6,-0.3 -1.3,-0.6 -2,-0.9 0.8,2.6 2.7,4.4 4.7,4.2 2.4,-0.2 4.1,-3.3 3.8,-6.8 -0.3,-3.5 -2.6,-6.2 -5,-6 -1.9,0.2 -3.3,2 -3.7,4.5 1.4,0.5 2.7,1.2 4,1.9 2,1.2 0.2,4.2 -1.8,3.1 z" />
          </g>
          <g
             id="g468">
            <path
               style="fill:#c0975c"
               inkscape:connector-curvature="0"
               id="path466"
               d="m 383.3,958.1 c 1.5,-0.9 3,-1.7 4.6,-2.5 -1.5,-2.4 -3.9,-3.8 -5.8,-3 -2.3,0.9 -3,4.3 -1.7,7.6 1.3,3.3 4.2,5.2 6.5,4.3 1.7,-0.7 2.6,-2.8 2.3,-5.3 -1.5,0.6 -3,1.2 -4.6,1.8 -1.8,0.8 -2.8,-2 -1.3,-2.9 z" />
          </g>
          <g
             id="g472">
            <path
               style="fill:#c0975c"
               inkscape:connector-curvature="0"
               id="path470"
               d="m 361.6,980.3 c -2.4,-0.2 -4.7,2.4 -5,6 -0.3,3.5 1.3,6.6 3.8,6.8 2.2,0.2 4.3,-2.1 4.9,-5.2 -1.6,0.3 -3.2,0.6 -4.8,0.8 -0.9,0.1 -1.5,-1 -0.6,-1.5 1.7,-1 3.5,-1.9 5.4,-2.7 -0.5,-2.3 -1.8,-4.1 -3.7,-4.2 z" />
          </g>
          <g
             id="g476">
            <path
               style="fill:#c0975c"
               inkscape:connector-curvature="0"
               id="path474"
               d="m 377.8,1010.6 c -1,0.3 -1.4,-1.3 -0.4,-1.6 2.3,-0.7 4.5,-1.4 6.8,-2 0.1,-3.3 -1.5,-6 -3.8,-6.2 -2.4,-0.2 -4.7,2.4 -5,6 -0.3,3.5 1.3,6.6 3.8,6.8 2.1,0.2 4.1,-1.8 4.8,-4.6 -2.1,0.4 -4.2,1 -6.2,1.6 z" />
          </g>
          <g
             id="g480">
            <path
               style="fill:#534121"
               inkscape:connector-curvature="0"
               id="path478"
               d="m 215.6,960.7 c 0.1,0 0.3,0.1 0.4,0.1 1.4,0.1 2.2,-2.1 0.8,-2.8 0,0 0,0 0,0 -2.4,-1.1 -4.9,-2.2 -7.4,-3.3 -4.5,-1.9 -9.2,-3.7 -13.9,-5.4 -26.1,-9.3 -54.2,-14.5 -81.6,-14.2 -1.4,0 -1.4,2 0,2.2 27.1,3.1 53.2,8.1 78.9,15.9 5,1.5 9.9,3.1 14.9,4.8 2.7,0.8 5.3,1.7 7.9,2.7 z" />
          </g>
          <g
             id="g484">
            <path
               style="fill:#534121"
               inkscape:connector-curvature="0"
               id="path482"
               d="m 231.2,985.4 c 2.8,0.5 5.5,1.1 8.3,1.7 0.2,0 0.3,0 0.5,0 1.5,-0.1 2,-2.5 0.3,-3 -0.3,-0.1 -0.6,-0.2 -0.9,-0.3 -2.3,-0.7 -4.7,-1.3 -7.1,-1.9 -15.7,-3.9 -32.5,-5.8 -49.3,-5.4 -30.6,0.6 -61.4,8.4 -86.3,23.6 -1.1,0.6 -0.4,2.6 0.9,2.1 22.4,-9.3 45.3,-17.1 69.6,-19.8 5.1,-0.6 10.2,-0.9 15.3,-1.1 16.3,-0.4 32.6,1.1 48.7,4.1 z" />
          </g>
          <g
             id="g488">
            <path
               style="fill:#534121"
               inkscape:connector-curvature="0"
               id="path486"
               d="m 212.8,1009.3 c 0.7,0.3 1.3,0.6 2,0.9 2,1.1 3.8,-1.9 1.8,-3.1 -1.3,-0.8 -2.6,-1.4 -4,-1.9 -8.3,-3.2 -17.8,-2.7 -27,-1.1 -5,0.8 -9.8,2 -14.3,3 -17.2,3.8 -36,9 -51.2,18.4 -1.2,0.8 -0.5,2.9 1,2.4 15.3,-5.2 29.8,-11.6 45.5,-15.5 6,-1.5 13.1,-3.4 20.3,-4.6 9.1,-1.5 18.3,-1.8 25.9,1.5 z" />
          </g>
          <g
             id="g492">
            <path
               style="fill:#534121"
               inkscape:connector-curvature="0"
               id="path490"
               d="m 387.9,955.6 c -1.5,0.8 -3.1,1.6 -4.6,2.5 -1.5,0.9 -0.5,3.7 1.3,3 1.5,-0.6 3,-1.2 4.6,-1.8 5.4,-2.2 10.7,-4.3 16.1,-6.3 11.9,-4.4 23.9,-8.1 36.7,-10.4 20.6,-3.6 41.3,-3.2 62.1,-1.8 1.4,0.1 1.7,-2.1 0.3,-2.4 -20.1,-3.8 -41,-3 -61.1,0.2 -13.5,2.2 -27.6,5.4 -40.8,10.4 -5,2 -9.9,4.1 -14.6,6.6 z" />
          </g>
          <g
             id="g496">
            <path
               style="fill:#534121"
               inkscape:connector-curvature="0"
               id="path494"
               d="m 513.8,974.1 c -25.6,-5.8 -52.9,-5.9 -78.9,-3.6 -6.9,0.6 -13.8,1.4 -20.6,2.5 -5.7,0.9 -11.4,1.9 -17,3.1 -10.2,2.2 -22,4.2 -32,8.5 -1.9,0.8 -3.7,1.7 -5.4,2.7 -0.9,0.5 -0.2,1.6 0.6,1.5 1.6,-0.2 3.2,-0.5 4.8,-0.8 10.6,-2.2 21.1,-6.2 31.7,-8.5 6,-1.3 12,-2.4 18,-3.3 7.4,-1.1 14.8,-2 22.3,-2.6 25.7,-2 50.7,0.1 76.3,2.6 1.1,0 1.4,-1.9 0.2,-2.1 z" />
          </g>
          <g
             id="g500">
            <path
               style="fill:#534121"
               inkscape:connector-curvature="0"
               id="path498"
               d="m 384.2,1007 c -2.3,0.6 -4.6,1.3 -6.8,2 -1,0.3 -0.6,1.9 0.4,1.6 2,-0.6 4.1,-1.2 6.1,-1.7 9.5,-2.5 19.2,-4.3 28.9,-5.4 2.8,-0.3 5.6,-0.6 8.4,-0.8 14.2,-0.9 27.8,0.9 41.9,1.7 0.7,0 0.9,-1.1 0.2,-1.2 -13.8,-3.6 -29.2,-3.4 -43.3,-2.4 -2.2,0.2 -4.4,0.4 -6.5,0.6 -9.9,1 -19.7,2.9 -29.3,5.6 z" />
          </g>
        </g>
        <path
           d="m 401.7324,725.58162 c -7.80122,-1.85114 -16.92469,-6.61121 -26.8415,-16.66025 -30.67602,-30.94045 -20.75921,-59.89754 -81.31787,-53.41856 -58.70754,6.34676 -54.74081,87.79684 -86.73906,89.51576 53.15412,1.32224 129.84413,-8.06568 194.89843,-19.43695 z m -118.73731,-3.83451 c 0.66112,-0.66112 1.05779,-1.05778 1.71891,-1.58669 0.66112,-0.52889 1.32225,-0.92557 1.98337,-1.32223 1.32224,-0.79335 2.7767,-1.71892 4.3634,-2.24782 1.45446,-0.52889 2.7767,1.5867 1.58669,2.64448 -1.19002,1.0578 -2.77671,1.71892 -4.09895,2.51226 -0.79336,0.39668 -1.45447,0.79335 -2.24782,1.0578 -0.79334,0.26445 -1.45446,0.39667 -2.24781,0.52889 -0.92557,0.26445 -1.71891,-0.79334 -1.05779,-1.58669 z m 41.91506,-36.09719 c 2.11558,-0.13222 3.30561,3.30561 1.19001,4.23118 -0.92557,0.39666 -1.71891,0.66111 -2.51226,1.32223 -0.66111,0.66112 -1.19001,1.32224 -1.45446,2.24781 -0.66112,2.11559 -3.3056,1.45447 -3.57005,-0.52889 -0.26445,-3.43783 2.77671,-7.1401 6.34676,-7.27233 z m -5.55342,27.63484 c 0.79334,0.26446 1.32225,0.26446 2.11559,0.52891 0.66112,0.26444 1.19001,0.66112 1.71892,0.92557 1.19001,0.66112 2.51226,1.19001 3.3056,2.38003 0.66112,0.92557 -0.13223,2.51226 -1.32225,2.38003 -1.45446,-0.13222 -2.51226,-1.05779 -3.70227,-1.85114 -0.66112,-0.39666 -1.32225,-0.79334 -1.85114,-1.19001 -0.52889,-0.39667 -0.79334,-0.92557 -1.32224,-1.45447 -0.5289,-0.66112 0.13223,-1.98336 1.05779,-1.71892 z m -23.007,-26.84149 c 7.27232,-4.23118 16.66024,-0.92557 19.1725,7.1401 1.85114,5.95009 0.5289,13.35464 -1.32223,19.1725 -1.45448,4.3634 -5.02452,7.27233 -9.7846,7.40455 -1.85113,0.13223 -3.8345,0 -5.55341,-0.66112 -3.70227,-1.45446 -6.34676,-3.96672 -6.87566,-7.93345 -0.13222,-0.66112 -0.13222,-1.45446 0,-2.11558 -0.52889,-1.19002 -1.05779,-2.51226 -1.45446,-3.8345 -2.24781,-7.14011 -0.92558,-15.20578 5.81786,-19.1725 z m -16.79247,-0.26446 c 3.04116,-0.13222 6.21454,0 8.99125,0.79335 0.92556,0.26445 1.32224,1.0578 1.45446,1.85114 0,0.39667 -0.13222,0.66112 -0.26445,0.92557 -0.26445,0.66112 -1.0578,0.92557 -1.71891,0.92557 -3.04116,0 -6.08231,-0.79334 -8.85902,-1.85114 -1.45446,-0.52889 -1.19002,-2.64449 0.39667,-2.64449 z"
           id="path274"
           inkscape:connector-curvature="0"
           style="fill:#2f2201;stroke-width:1.32224166" />
        <path
           d="m 189.11593,772.91787 c 0,0 0,0 0,0 1.0578,0.92556 2.38004,1.98336 3.96672,3.04115 7.80123,5.68564 21.68477,13.75131 37.94835,22.74256 3.83449,2.11558 7.80122,4.23117 11.76795,6.47898 27.76707,14.94133 59.89753,31.2049 81.71452,42.04728 -2.51226,21.15587 4.3634,51.69965 19.30473,68.62434 6.74344,7.669 15.20579,12.42908 25.25484,12.29686 3.83449,-0.13223 7.53677,-0.66113 10.97459,-1.58669 23.27146,-6.479 37.55167,-31.60158 38.21279,-54.87303 11.76795,-1.0578 25.12259,-5.55342 35.30385,-9.65237 9.65236,-3.96672 16.52802,-7.53678 16.52802,-7.53678 0,0 0,0 -4.89229,-11.90017 -4.89229,3.57005 -9.38792,6.61121 -13.61909,8.99124 -14.94133,8.72679 -26.04816,11.37128 -33.58494,11.5035 -1.05779,-8.46234 -4.09894,-16.39579 -9.38791,-22.34588 -6.47899,-7.40455 -48.92296,-26.84151 -72.98775,-15.07355 -3.96673,1.98336 -6.87566,6.08231 -8.85902,11.63572 -25.51927,-10.18126 -51.17076,-24.32925 -72.59107,-37.41944 -4.23117,-2.51226 -8.19789,-5.02452 -12.0324,-7.53677 -10.04903,-6.34676 -18.77583,-12.0324 -25.65149,-16.66025 7.66901,1.45446 16.26358,2.51226 25.91594,3.17338 47.73293,3.17339 106.44045,0.39668 152.45448,-14.2802 32.65936,-10.44572 58.97197,-26.84151 70.34325,-51.30299 -18.64361,4.23118 -40.32838,8.46235 -63.33538,12.5613 -65.0543,11.37129 -141.61208,20.62697 -194.89842,19.43696 -1.0578,0 -2.11559,0 -3.04116,-0.13223 -2.38004,-0.13222 -4.76007,-0.13222 -7.00788,-0.26445 -20.2303,-1.05779 -36.36164,-3.8345 -45.74956,-9.12347 0,0 2.24781,8.7268 13.61909,18.24694 4.23118,3.57005 9.78459,7.27233 17.05692,10.71015 0.39667,1.71892 2.77671,4.3634 7.27232,8.19791 z"
           id="path276"
           inkscape:connector-curvature="0"
           style="fill:#4f3d1d;stroke-width:1.32224166" />
        <path
           d="m 290.53187,705.48354 c 0.39667,1.32224 0.92557,2.64449 1.45446,3.8345 0,0.66112 -0.13222,1.45447 0,2.11559 0.5289,4.09895 3.17339,6.47899 6.87566,7.93345 1.85114,0.66112 3.70228,0.79334 5.55341,0.66112 4.62785,-0.26444 8.33012,-3.04115 9.7846,-7.40455 1.85113,-5.68564 3.04115,-13.22242 1.32223,-19.17251 -2.51226,-8.1979 -11.90018,-11.37127 -19.1725,-7.1401 -6.74344,4.09895 -8.06567,12.16462 -5.81786,19.1725 z"
           id="path278"
           inkscape:connector-curvature="0"
           style="fill:#ffffff;stroke-width:1.32224166" />
        <path
           d="m 322.13344,693.45114 c 0.26445,-0.92557 0.66112,-1.58669 1.45446,-2.24781 0.79335,-0.66112 1.58669,-0.92557 2.51226,-1.32223 2.1156,-0.92557 1.0578,-4.3634 -1.19001,-4.23118 -3.57005,0.13223 -6.74343,3.8345 -6.34676,7.40455 0.26445,1.98336 2.90893,2.51226 3.57005,0.39667 z"
           id="path280"
           inkscape:connector-curvature="0"
           style="fill:#ffffff;stroke-width:1.32224166" />
        <path
           d="m 319.75341,716.59037 c 0.52889,0.39668 1.19002,0.79334 1.85114,1.19002 1.19001,0.79334 2.24781,1.71891 3.70227,1.85114 1.19002,0.13223 1.98336,-1.45446 1.32225,-2.38003 -0.79335,-1.19002 -2.1156,-1.71892 -3.30561,-2.38005 -0.5289,-0.26444 -1.19002,-0.66112 -1.71891,-0.92556 -0.79335,-0.39667 -1.32225,-0.39667 -2.11559,-0.5289 -1.05779,-0.26444 -1.71892,0.92557 -1.05779,1.71891 0.39667,0.39668 0.79334,0.92558 1.32224,1.45447 z"
           id="path282"
           inkscape:connector-curvature="0"
           style="fill:#ffffff;stroke-width:1.32224166" />
        <path
           d="m 283.92066,723.3338 c 0.79334,-0.26444 1.45446,-0.26444 2.24781,-0.52889 0.79334,-0.26445 1.45447,-0.66112 2.24781,-1.0578 1.45447,-0.79334 2.90893,-1.45446 4.09895,-2.51226 1.19001,-1.05778 -0.13222,-3.04115 -1.58669,-2.64448 -1.58669,0.5289 -2.90893,1.45447 -4.3634,2.24782 -0.66112,0.39666 -1.32224,0.79334 -1.98336,1.32223 -0.66112,0.52891 -1.05779,1.0578 -1.71892,1.58669 -0.52889,0.79335 0.26445,1.85114 1.0578,1.58669 z"
           id="path284"
           inkscape:connector-curvature="0"
           style="fill:#ffffff;stroke-width:1.32224166" />
        <path
           d="m 279.16059,688.8233 c 2.77671,1.0578 5.81786,1.85114 8.85902,1.85114 0.66111,0 1.45446,-0.39668 1.71891,-0.92557 0.13223,-0.26445 0.26445,-0.66112 0.26445,-0.92557 -0.13222,-0.92557 -0.5289,-1.58669 -1.45446,-1.85114 -2.90894,-0.79335 -6.08232,-0.92557 -8.99125,-0.79335 -1.58669,0 -1.85113,2.1156 -0.39667,2.64449 z"
           id="path286"
           inkscape:connector-curvature="0"
           style="fill:#ffffff;stroke-width:1.32224166" />
      </g>
    </g>
  </g>
</svg>
