<?xml version="1.0" encoding="utf-8"?>
<!-- Generator: Adobe Illustrator 19.1.0, SVG Export Plug-In . SVG Version: 6.00 Build 0)  -->
<svg version="1.1" id="Layer_1" xmlns="http://www.w3.org/2000/svg" xmlns:xlink="http://www.w3.org/1999/xlink" x="0px" y="0px"
	 width="1400px" height="1400px" viewBox="0 0 1400 1400" enable-background="new 0 0 1400 1400" xml:space="preserve">
<g>
	<defs>
		<rect id="SVGID_1_" width="1400" height="1400"/>
	</defs>
	<clipPath id="SVGID_2_">
		<use xlink:href="#SVGID_1_"  overflow="visible"/>
	</clipPath>
	<g clip-path="url(#SVGID_2_)">
		<rect fill="#C4E9FB" width="1400" height="801.1"/>
		<path fill="#FFFFFF" d="M-45.2,212.8c68.7-52.4,163.3-77.3,243.8-45.8s135.1,128.7,103.6,209.2c25.6-42.5,92.6-44.6,130.3-12.3
			s49.3,87,43.5,136.3c65.5-48.6,161-52.3,230-8.9c70.5-59.5,172.6-79,260.1-49.7c1.8-59.7,30.5-118.1,76.5-156s108.8-55,167.8-45.4
			c21.4-78.8,68.9-152.1,138.4-194.9s161.7-51.2,233.4-12.3c67.7,36.6,110,109.6,126.6,184.7c16.6,75.2,10.8,153.3,3,229.9
			c-3.6,35.6-7.9,71.9-23.5,104.1c-19.5,40.1-55.1,70.1-92.5,94.5c-78.4,51.2-168.2,82.8-259.2,104.6
			C1176.9,789,1012,798.2,848.1,804c-212.4,7.5-425.7,9.6-636.9-14.4C72.1,773.7-76,741-170.5,637.7
			c-31.2-34.1-55.5-76.3-60.2-122.2c-7.1-68.9,29.6-133.7,51.6-199.4L-45.2,212.8z"/>
		<path fill="#8BD1CC" d="M-137.9,574.2c62-37.7,136.2-67.4,217.6-82.2s170-14.2,249,5.5c60.8,15.2,138.5,42.1,185.1,85.8
			c49.2,46.2,95.5,57.8,164.2,34.7c50.7-17.1,95.4-47.9,143-72.5c11.2-5.8,23.5-11.4,36-9.6c9.5,1.4,17.9,7.1,27.2,9.6
			c27,7.3,53.1-12.4,75-29.8C1115.3,392.5,1319,331.4,1517,348.5c28.5,2.5,61.7,9.8,73.5,35.9c8.2,18.1,3,39.2-2.4,58.3
			c-22.9,81.8-45.8,163.6-68.7,245.4c-6.2,22.1-13.2,45.5-30.4,60.7c-17.5,15.5-42.2,19.3-65.3,22.5
			c-103.8,14.3-208.5,28.6-313.1,21.8c-170.1-11.1-327.8-62.7-500-47.3C431.9,761.8,255,795,75.7,805.5
			c-81.9,4.8-169.4,4.1-239.6-24.1L-137.9,574.2z"/>
		<path fill="#987948" d="M1795.6,523.3c-44.4-12.7-90.1-22.4-135.9-31.3c-0.3-1.5-0.6-3-0.9-4.5c-1.2-6.5-2.4-13.1-3.4-19.6
			c29.4,6,58.8,12.3,88.1,18.8c16,3.6,31.9,7,48,10c9.6,1.8,13.6-10.8,4.1-13.6c-46.5-13.4-94.5-23.3-142.4-32.6
			c-0.7-6.9-1.2-13.8-1.7-20.8c-0.3-4.5-0.6-9-0.7-13.6c-0.2-4.5,0.6-9.4-3.3-12.7c-2-1.7-4.8-1.4-6.5,0c0,0,0,0,0,0
			c-4,3.2-3.3,8.2-3.4,12.7c0,1.6-0.1,3.3-0.1,4.9c-0.7,1.9-1.4,3.7-1.9,5.2c-0.4,1.2,0.9,1.9,1.9,1.6c0,1.3,0,2.5,0.1,3.8
			c0.1,5.3,0.5,10.7,1,16c-11.4-2.2-22.8-4.4-34.2-6.6c-64.2-12.4-128.7-23.5-193.5-33.3c-129-19.6-259-34.2-389.4-43.8
			c-130.8-9.6-262.2-14.2-393.4-13.4c-131.3,0.8-262.5,6.6-393.2,17.6c-130,10.9-259.9,26.5-387.8,50.4c-16,3-32.1,6.1-48.1,9.2
			c-5.3,1-3,8.1,2.2,7.3c12.2-1.9,24.4-3.7,36.6-5.5c0,0.3,0,0.6,0,1c0.3,2.7,0.9,5.5,1.2,8.2c0.6,5.2,1.2,10.4,1.4,15.6
			c0.1,1.9,0.1,3.8,0.1,5.7c-13.8,2.6-27.7,5.3-41.5,7.9c-5.3,1-3,8.1,2.2,7.3c13-2,26-3.9,39-5.9c-0.2,5-1.2,10.7,0.3,15.5
			c1.1,3.7,6.1,3.9,8.3,1c3.1-4.1,3.7-10.1,4.4-15c0.2-1.2,0.3-2.3,0.3-3.5c111.6-16.2,223.8-29.6,336.2-39.7
			c130-11.6,260.5-18.6,391.1-20.3c130-1.7,260.1,1.4,389.8,9.6c130.8,8.2,261.2,21.6,390.7,40c96.5,13.8,192.6,30.3,288.1,49.7
			c1.4,3.4,3.3,6.7,5.7,9.6c1.8,2.1,6.1,0.9,6.6-1.6c0.3-1.8,0.5-3.6,0.6-5.4c27.2,5.6,54.4,11.4,81.4,17.4c16,3.6,31.9,7,48,10
			C1801.2,538.6,1805.1,526,1795.6,523.3z"/>
		<path fill="#987948" d="M1816.5,656.3c-44.4-12.7-90.1-22.4-135.9-31.3c-0.3-1.5-0.6-3-0.9-4.5c-1.2-6.5-2.4-13.1-3.4-19.6
			c29.4,6,58.8,12.3,88.1,18.8c16,3.6,31.9,7,48,10c9.6,1.8,13.6-10.8,4.1-13.6c-46.5-13.4-94.5-23.3-142.4-32.6
			c-0.7-6.9-1.2-13.8-1.7-20.8c-0.3-4.5-0.6-9-0.7-13.6c-0.2-4.5,0.6-9.4-3.3-12.7c-2-1.7-4.8-1.4-6.5,0c0,0,0,0,0,0
			c-4,3.2-3.3,8.2-3.4,12.7c0,1.6-0.1,3.3-0.1,4.9c-0.7,1.9-1.4,3.7-1.9,5.2c-0.4,1.2,0.9,1.9,1.9,1.6c0,1.3,0,2.5,0.1,3.8
			c0.1,5.3,0.5,10.7,1,16c-11.4-2.2-22.8-4.4-34.2-6.6c-64.2-12.4-128.7-23.5-193.5-33.3c-129-19.6-259-34.2-389.4-43.8
			c-130.8-9.6-262.2-14.2-393.4-13.4c-131.3,0.8-262.5,6.6-393.2,17.6c-130,10.9-259.9,26.5-387.8,50.4c-16,3-32.1,6.1-48.1,9.2
			c-5.3,1-3,8.1,2.2,7.3c12.2-1.9,24.4-3.7,36.6-5.5c0,0.3,0,0.6,0,1c0.3,2.7,0.9,5.5,1.2,8.2c0.6,5.2,1.2,10.4,1.4,15.6
			c0.1,1.9,0.1,3.8,0.1,5.7c-13.8,2.6-27.7,5.3-41.5,7.9c-5.3,1-3,8.1,2.2,7.3c13-2,26-3.9,39-5.9c-0.2,5-1.2,10.7,0.3,15.5
			c1.1,3.7,6.1,3.9,8.3,1c3.1-4.1,3.7-10.1,4.4-15c0.2-1.2,0.3-2.3,0.3-3.5c111.6-16.2,223.8-29.6,336.2-39.7
			c130-11.6,260.5-18.6,391.1-20.3c130-1.7,260.1,1.4,389.8,9.6c130.8,8.2,261.2,21.6,390.7,40c96.5,13.8,192.6,30.3,288.1,49.7
			c1.4,3.4,3.3,6.7,5.7,9.6c1.8,2.1,6.1,0.9,6.6-1.6c0.3-1.8,0.5-3.6,0.6-5.4c27.2,5.6,54.4,11.4,81.4,17.4c16,3.6,31.9,7,48,10
			C1822,671.6,1826,659.1,1816.5,656.3z"/>
		<path fill="#886C40" d="M171.7,648.5c-7.3-23.8-2-303.4-2.6-318.1c-0.7-14.7,49.9-19.1,60.6-7.9c10.7,11.2,0,326,0,326H171.7z"/>
		<path fill="#886C40" d="M1189.2,657c-7.3-23.8-2-303.4-2.6-318.1s49.9-19.1,60.6-7.9c10.7,11.2,0,326,0,326H1189.2z"/>
		<path fill="#BBD753" d="M1312,793c-124-19-249-8-375,7c-63,8-123,7-186,23c-4,1-8-1-12,0c-1,1-2,2-3,3c196-10,387,27,579,79
			c71.7,19.6,140.8,37.8,210.5,59.6c-0.6-97.5,0-194.9,0-292.4C1281.4,623,999.8,595,700,595c-292.7,0-568,26.7-808,73.7
			c3,44,4.6,87.8,5.4,131.6C361.3,700.5,846.6,698,1312,793z"/>
		<path fill="#A7C24B" d="M400,1220c90,7,178,18,267,32c-94-7-183,9-279,28c-22,4-42,11-63,14c8,0,16,0,24,0c117-9,229,6,348,29
			c224,44,422,86,645,133c76,16.2,148.8,36.3,219.9,58.8c-13.3-83.1-24.4-166.4-28.9-250.8c-5-99.8-6.9-199.6-7.5-299.4
			c-69.7-21.8-138.8-40-210.5-59.6c-192-52-383-89-579-79c1-1,2-2,3-3c4-1,8,1,12,0c63-16,123-15,186-23c126-15,251-26,375-7
			c-465.4-95-950.7-92.5-1414.7,7.4c2.6,148-4.3,295.4,2.2,443.6c125-20.8,253.4-20.6,380.4-23C320,1220,360,1217,400,1220z"/>
		<path fill="#8CA43F" d="M1342,1456c-223-47-421-89-645-133c-119-23-231-38-348-29c-8,0-16,0-24,0c21-3,41-10,63-14
			c96-19,185-35,279-28c-89-14-177-25-267-32c-40-3-80,0-120,1c-127.1,2.4-255.4,2.2-380.4,23c1.3,28.6,3,57.3,5.4,86
			c11.7,139.5,23.4,277.6,44.8,414.2c226,40.3,480.8,62.9,750.2,62.9c329.1,0,636.1-33.8,895.8-92.2
			c-11.2-66.7-23.2-133.4-33.9-200.2C1490.8,1492.3,1418,1472.2,1342,1456z"/>
		<path fill="#869D3C" d="M697.4,932c0,0,204,16.1,218.7,19.5s215,116.7,215,116.7s-104.1,49.9-93.7,47.8
			c10.4-2.1,325.5,171.9,325.5,171.9s12,30-36,42c-48,12-18,0-18,0l-330.5-187.6c0,0-118.2,40.6-120.4,34.6s-255.5-145-280.3-164
			C552.8,993.8,668.5,929.7,697.4,932z"/>
		<g>
			<g>
				<path fill-rule="evenodd" clip-rule="evenodd" fill="#705933" d="M391.5,651.3c93.9,0,170.1,24.8,170.1,55.5
					s-76.2,55.5-170.1,55.5s-170.1-24.8-170.1-55.5S297.5,651.3,391.5,651.3"/>
				<path fill-rule="evenodd" clip-rule="evenodd" fill="#4F3D1D" d="M558.8,716.8c-14.4,25.9-83.8,45.5-167.4,45.5
					s-153-19.6-167.4-45.5c14.4-25.9,83.8-45.5,167.4-45.5S544.4,690.9,558.8,716.8"/>
			</g>
		</g>
		<g>
			<path fill-rule="evenodd" clip-rule="evenodd" fill="#705933" d="M1008.5,648.6c93.9,0,170.1,24.8,170.1,55.5
				s-76.2,55.5-170.1,55.5s-170.1-24.8-170.1-55.5S914.6,648.6,1008.5,648.6"/>
			<path fill-rule="evenodd" clip-rule="evenodd" fill="#4F3D1D" d="M1175.9,714c-14.4,25.9-83.8,45.5-167.4,45.5
				c-83.5,0-153-19.6-167.4-45.5c14.4-25.9,83.8-45.5,167.4-45.5C1092.1,668.5,1161.5,688.1,1175.9,714z"/>
		</g>
		<g>
			<path fill-rule="evenodd" clip-rule="evenodd" fill="#705933" d="M301.8,1056.4c138.9,0,251.4,36.7,251.4,82
				c0,45.3-112.6,82-251.4,82s-251.4-36.7-251.4-82C50.4,1093.2,163,1056.4,301.8,1056.4"/>
			<path fill-rule="evenodd" clip-rule="evenodd" fill="#4F3D1D" d="M549.2,1153.2c-21.3,38.3-123.9,67.3-247.4,67.3
				s-226.1-29-247.4-67.3c21.3-38.3,123.9-67.3,247.4-67.3S528,1114.9,549.2,1153.2"/>
		</g>
		<g>
			<g>
				<path fill-rule="evenodd" clip-rule="evenodd" fill="#705933" d="M1098.2,1056.4c138.9,0,251.4,36.7,251.4,82
					c0,45.3-112.6,82-251.4,82s-251.4-36.7-251.4-82C846.7,1093.2,959.3,1056.4,1098.2,1056.4"/>
				<path fill-rule="evenodd" clip-rule="evenodd" fill="#4F3D1D" d="M1345.6,1153.2c-21.3,38.3-123.9,67.3-247.4,67.3
					s-226.1-29-247.4-67.3c21.3-38.3,123.9-67.3,247.4-67.3S1324.3,1114.9,1345.6,1153.2"/>
			</g>
		</g>
		<g>
			<path fill="#987948" d="M1052.7,708.3c-1.8,2.9-3.8,5.5-5.8,7.8c1,0.9,2,1.9,3,2.9c0.9,0,1.7,0,2.6,0c1.5,0.1,3.2,0.4,4.3,1.4
				c1.6,1.6,1.4,4.3,0.1,6.1c6.9,8.3,13.1,18,18.3,28.5c6.4-0.9,12.6-1.9,18.5-3c-5.8-9.6-12.8-18.4-21.5-25.9
				c11.3-3,22.2-8,31.9-14.5c-1.7-3.1-3.4-6-5.3-8.9C1080.9,711,1063,713.7,1052.7,708.3z"/>
			<path fill="#987948" d="M956,729.4c-0.3-1.9,1.6-3.4,3.3-4.3c2.2-1.1,4.5-1.9,6.9-2.4c1.7-2,3.5-4,5.3-5.8
				c-2.4-2.5-4.4-5.3-6-8.3c-10.5,5-27.8,2.9-45.3-4.3c-0.4,0.5-0.9,1-1.3,1.5c7,8.3,17.4,14.5,26.6,18.6
				c-6.2,9-11.8,18.6-16.4,28.6c5.5,1,11.3,1.8,17.1,2.6c3.8-8.6,8.1-16.6,13-23.7C957.7,731.6,956.2,730.9,956,729.4z"/>
			<path fill="#987948" d="M920.1,704.4c-0.7-0.3-1.3-0.5-2-0.8c-0.2,0.3-0.3,0.5-0.5,0.8c0.3,0.4,0.7,0.8,1,1.2
				C919.1,705.2,919.6,704.8,920.1,704.4z"/>
			<path fill="#AD8852" d="M1093.7,752.1c12.6-2.4,24.3-5.3,34.6-8.6c-0.5-5.2-1.3-10.5-2.5-15.7c-7.7-8.4-16.3-16.1-25.1-23.3
				c2.8,2.3,4.6,6.5,5.6,11.3c-0.7-1.4-1.4-2.7-2.2-4.1c-9.7,6.5-20.6,11.5-31.9,14.5C1080.9,733.7,1087.9,742.5,1093.7,752.1z"/>
			<path fill="#FFD684" d="M990,738.9c1-0.3,2-0.5,3-0.7c0.9-0.2,1.8-0.4,2.7-0.5c-2.6-1.7-5.3-2.8-10.4-3.2
				c-8.1-0.7-16.2-1.4-24.3-2.1c-0.6-0.1-1.3-0.2-1.9-0.3c-4.9,7.1-9.2,15.1-13,23.7c6.5,0.8,13.1,1.5,20,2.1
				c0.7-1.6,1.4-3.1,2.4-4.6C973.4,745.8,981.5,741.2,990,738.9z"/>
			<path fill="#FFD684" d="M1046.9,716.1c-1.2,1.4-2.5,2.7-3.8,3.9c2.2-0.6,4.5-1,6.9-1C1048.9,718,1047.9,717,1046.9,716.1z"/>
			<path fill="#FFD684" d="M1056.9,726.7c-1.3,1.8-3.4,3-5.4,4c-4,2.1-9.6,5.3-15.7,8.2c3.1,1,6.1,2.4,8.7,4.5
				c4.5,3.6,7.3,8.6,9.1,14.2c7.4-0.7,14.6-1.5,21.6-2.5C1070.1,744.5,1063.8,734.8,1056.9,726.7
				C1056.9,726.6,1056.9,726.6,1056.9,726.7z"/>
			<path fill="#FFD684" d="M976.1,722.3c-0.6-0.1-1.1-0.1-1.7-0.1C974.9,722.5,975.5,722.5,976.1,722.3z"/>
			<path fill="#FFD684" d="M966.2,722.8c2.7-0.6,5.5-0.8,8.2-0.6c-1.1-0.6-1.8-2.3-1.5-3.7c-0.5-0.5-1-1-1.4-1.5
				C969.6,718.8,967.9,720.7,966.2,722.8z"/>
			<path fill="#0E8341" d="M974.4,722.2c0.6,0,1.1,0.1,1.7,0.1C975.5,722.5,974.9,722.5,974.4,722.2c-2.7-0.2-5.5,0-8.2,0.6
				c-2.4,0.5-4.7,1.3-6.9,2.4c-1.7,0.9-3.6,2.4-3.3,4.3c0.3,1.5,1.7,2.2,3.2,2.6c0.6,0.2,1.3,0.3,1.9,0.3c8.1,0.7,16.2,1.4,24.3,2.1
				c5.2,0.5,7.8,1.5,10.4,3.2c6.7-1.1,13.6-1.1,20.4-1.1c1.7,0,3.4,0,5.1,0.1c5,0.2,10,0.7,14.6,2.2c6.1-2.9,11.6-6.1,15.7-8.2
				c2-1,4.1-2.2,5.4-4c0,0,0-0.1,0.1-0.1c1.2-1.8,1.5-4.6-0.1-6.1c-1.1-1.1-2.7-1.4-4.3-1.4c-0.9-0.1-1.7-0.1-2.6,0
				c-2.3,0.1-4.6,0.4-6.9,1c-22,20.4-53.4,14.9-70.2-1.5C972.6,719.9,973.3,721.5,974.4,722.2z"/>
			<path fill="#F4782D" d="M993.1,738.2c-1,0.2-2,0.4-3,0.7c-8.5,2.3-16.7,6.9-21.4,14.3c-1,1.5-1.8,3-2.4,4.6c4.6,0.4,9.3,0.7,14,1
				C982.5,750.9,987,743.8,993.1,738.2z"/>
			<path fill="#DB6D28" d="M1021.3,736.7c-1.7-0.1-3.4-0.1-5.1-0.1c-6.8,0-13.7,0-20.4,1.1c-0.9,0.1-1.8,0.3-2.7,0.5
				c-6.1,5.6-10.6,12.7-12.9,20.6c9.2,0.5,18.7,0.8,28.4,0.8c9.5,0,18.8-0.3,27.9-0.7C1032.8,750.6,1027.8,743.1,1021.3,736.7z"/>
			<path fill="#F4782D" d="M1044.5,743.4c-2.6-2.1-5.5-3.5-8.7-4.5c-4.6-1.5-9.6-2-14.6-2.2c6.6,6.4,11.5,13.9,15.1,22.1
				c5.8-0.3,11.6-0.7,17.2-1.2C1051.8,752.1,1049,747,1044.5,743.4z"/>
			<path fill="#AD8852" d="M929.1,753.1c4.6-10,10.2-19.6,16.4-28.6c-9.2-4.1-19.6-10.3-26.6-18.6c0.4-0.6,0.8-1.1,1.3-1.5
				c0,0,0,0-0.1,0c-0.5,0.4-1,0.8-1.5,1.2c-0.3-0.4-0.7-0.8-1-1.2c-0.8,1.4-1.7,2.7-2.5,4.1c-5.7,4.8-11.1,9.9-16.3,15.2
				c-5.1,5.3-10.4,11.4-15.1,18.1C896.8,746.4,912.1,750.2,929.1,753.1z"/>
			<path fill="#987948" d="M1136.4,740.7c-1.2-1.7-2.5-3.4-3.8-5c-2.2-2.7-4.4-5.3-6.8-7.9c1.1,5.2,2,10.4,2.5,15.7
				C1131.1,742.6,1133.8,741.6,1136.4,740.7z"/>
			<path fill="#FFD684" d="M937.2,506.9c-7.3-7.9-26.3-13-33,2.7c-7,16.3,7.2,27.3,10.9,29.9C920.4,527.2,927.9,516.1,937.2,506.9z"
				/>
			<path fill="#FFD684" d="M1100.8,540c4.8-3.5,16.3-14,9.9-29.2c-6.4-15-24-11-31.9-3.8C1088.1,516.4,1095.7,527.6,1100.8,540z"/>
			<path fill="#C0975C" d="M920.2,704.4c17.5,7.2,34.8,9.3,45.3,4.3c1.6,3,3.6,5.7,6,8.3c0.5,0.5,0.9,1,1.4,1.5
				c16.8,16.4,48.2,21.9,70.2,1.5c1.3-1.2,2.6-2.5,3.8-3.9c2.1-2.3,4-4.9,5.8-7.8c10.3,5.4,28.2,2.7,46.2-5.5
				c5.9-2.7,11.7-5.9,17.3-9.7c-0.9,1.5-2.2,4-1.3,5.1c1.3-4.2,29.8-17.2,31.7-28.3c0.1-1,3.4,1.2,3.3,4.2c5-3.8,1.7-18.3,1.7-18.3
				s4.9,1.7,5.3,4.9c7.4-28.6-5.6-50.2-18-68.7c-1.5-0.2,0.9-1.5-1.4-2.2c-7.8-9.3-18-16.6-29.6-21c-0.8-8.2-2.5-16-5.1-23.5
				c2.4-1.6,5.4-4,8.9-7.1c16.2-14.7,3-43.7-15.6-46c-9.1-1.1-16.2,3.9-21.2,9.3c-0.1,1.1-0.2,1.7-0.2,1.7s0,0,0,0c0,0,0,0,0,0
				s-0.2,9.7-26.4,14.2c7.6,3.4,14.4,9.9,15.1,18.1c-2.9-2.9-5.7-5.8-9.1-8.1c-6-4.1-13.9-7.5-21.4-8.3c-7.3,0.5-15.9,0.6-26,0.3
				c-7.7-0.2-14.5-0.7-20.4-1.3l0.7,0.8c-13.4-0.1-24,10.3-35.5,16.1c1.7-6.7,6-12.6,11.8-16.4c1.9-1.2,4-2.2,6.2-3
				c-28.1-5.6-25.5-15.2-25.4-15.2l0,0v0c-0.8,0.6-1.6,1.3-2.3,2c-4.9-6.1-12.7-12.8-23-11.5c-18.6,2.3-31.8,31.3-15.6,46
				c4,3.7,7.3,6.1,9.9,7.8c-2.7,7.6-4.5,15.7-5.3,24.1c-11.9,4.4-22.3,12-30.2,21.6c-1.4,0.3-2.3,3.8-3.2,3.9
				c-12.4,18.4-21.2,37.6-13.8,66.2c0.4-3.2,5.3-4.9,5.3-4.9s-3.3,14.5,1.7,18.3c-0.1-3,3.2-5.3,3.3-4.2c1.9,11,30.4,24,31.7,28.3
				c0.5-0.6,0.3-1.7-0.1-2.7c5.1,3.1,10.3,5.9,15.6,8.1C918.8,703.9,919.4,704.1,920.2,704.4C920.1,704.4,920.1,704.4,920.2,704.4z
				 M1110.7,510.8c6.4,15.1-5.1,25.6-9.9,29.2c-5.1-12.4-12.7-23.6-22-32.9C1086.7,499.8,1104.3,495.8,1110.7,510.8z M1046.3,545.4
				c9.6-2.8,20.8,6.6,25,20.9c4.2,14.4-0.2,28.3-9.8,31.1c-9.6,2.8-20.8-6.6-25-20.9C1032.4,562.1,1036.7,548.2,1046.3,545.4z
				 M967,545.4c9.6,2.8,14,16.7,9.8,31.1c-4.2,14.4-15.4,23.7-25,20.9c-9.6-2.8-14-16.7-9.8-31.1C946.2,552,957.4,542.6,967,545.4z
				 M904.3,509.6c6.7-15.7,25.6-10.6,33-2.7c-9.3,9.2-16.9,20.3-22.1,32.6C911.4,536.9,897.3,526,904.3,509.6z M886.3,673.6
				c-1,0.3-1.5-1.1-0.7-1.6c10.2-6.3,23-9.9,34.6-12.5c3-0.7,6.3-1.4,9.7-2c-1.4-4.2-2.2-8.6-2.2-13.3c0-0.7,0-1.4,0.1-2.1
				c-3.4,0.1-6.9,0.3-10.3,0.7c-16.4,1.8-31.9,7.1-47.1,13.4c-0.8,0.3-1.3-1-0.6-1.4c16.9-10.3,37.7-15.5,58.4-16
				c1-5.5,3.3-10.8,6.6-15.8c-17.4-5.2-35.1-8.6-53.4-10.7c-0.9-0.1-1-1.5,0-1.5c18.6-0.2,37.5,3.3,55.2,9.6
				c9.9-13.1,26.3-22.9,41.2-22.9c0.3,0,0.6,0,0.9,0c0,0,0,0,0,0c6-7.4,16.1-12.3,27.6-12.3s21.6,4.9,27.6,12.3c0,0,0,0,0,0.1
				c0.6,0,1.1-0.1,1.7-0.1c14.8,0,31.2,9.7,41.1,22.8c8.9-3.4,18.4-5.6,27.6-7.1c13.6-2.2,27.7-2.7,41.4-0.2
				c0.9,0.2,0.7,1.7-0.2,1.6c-14.1-0.9-28-1.2-42,1.2c-8.7,1.5-16.8,4.1-24.8,7c2.8,4.3,4.9,8.8,6.1,13.5c4.6-0.7,9.3-1.3,14-1.7
				c17.6-1.6,36.1-1.5,53.4,2.5c0.8,0.2,0.6,1.5-0.2,1.4c-17.3-1.7-34.2-3.1-51.6-1.8c-5.1,0.4-10.1,1-15.1,1.8
				c0.3,1.9,0.5,3.8,0.5,5.7c0,4-0.6,7.8-1.6,11.4c1.5-0.2,2.9-0.3,4.4-0.4c9.5-0.7,20-0.8,29.3,1.6c0.5,0.1,0.4,0.9-0.1,0.8
				c-9.5-0.6-18.8-1.8-28.4-1.1c-1.9,0.1-3.8,0.3-5.7,0.5c-1.1,3.3-2.6,6.5-4.4,9.4c-4.8,12.8-13.3,24.3-24.3,32.4
				c1.2-2.2,1-5.1-0.5-7.1c-4.7,3.6-9.5,7.2-14.2,10.9c1.6-2.3,2.2-5.2,1.8-8c-6.3,9-14.4,17.6-25,20.2c-11.1,2.7-22.7-1.5-33-6.4
				c-8.4-3.9-16.5-8.3-24.4-13.1c0.9,2.5,1.1,5.2,0.5,7.8c-9.1-8.8-17.1-18.7-23.9-29.3c-2.4-3.8-4.7-8.3-5.1-12.7
				c-0.2-0.4-0.3-0.7-0.5-1.1c-4.8,0.8-9.6,2.1-13.7,3.1C906.4,665.7,896.6,670.1,886.3,673.6z"/>
			<path fill="#AD8852" d="M1043.8,686c-7.4,0-14.4-2-20.4-5.4l-1.7,13.6c-0.4,3.6-2.9,6.5-6.5,6.5h-2.2c-3.1,0-5.6-2.1-6.3-5
				c-0.8,2.9-3.2,5-6.3,5h-2.2c-3.6,0-6.1-3-6.5-6.5l-1.7-13.6c-6,3.4-13,5.4-20.4,5.4c-17.1,0-31.8-10.3-38.3-25
				c0.4,4.4,2.6,8.8,5.1,12.7c6.8,10.6,14.8,20.5,23.9,29.3c0.6-2.6,0.4-5.3-0.5-7.8c7.9,4.8,16.1,9.2,24.4,13.1
				c10.3,4.9,21.9,9.1,33,6.4c10.6-2.6,18.7-11.2,25-20.2c0.4,2.8-0.2,5.7-1.8,8c4.7-3.6,9.5-7.2,14.2-10.9c1.5,2,1.7,4.9,0.5,7.1
				c11-8.1,19.5-19.6,24.3-32.4C1071.8,678.2,1058.7,686,1043.8,686z"/>
			<path fill="#1C1B15" d="M963.5,518.8c-5.8,3.7-10.1,9.7-11.8,16.4c11.5-5.9,22.1-16.3,35.5-16.1l-0.7-0.8
				c-6.6-0.6-12.1-1.5-16.8-2.4C967.5,516.6,965.4,517.6,963.5,518.8z"/>
			<path fill="#1C1B15" d="M1054.4,527.5c3.4,2.3,6.3,5.2,9.1,8.1c-0.8-8.2-7.5-14.7-15.1-18.1c-4.4,0.7-9.4,1.3-15.4,1.7
				C1040.4,520,1048.4,523.4,1054.4,527.5z"/>
			<path fill="#FFFDFA" d="M998.2,700.8h2.2c3.1,0,5.6-2.1,6.3-5l-2-29c-3.7,5.7-8.7,10.5-14.7,13.8l1.7,13.6
				C992.1,697.9,994.6,700.8,998.2,700.8z"/>
			<path fill="#FFFDFA" d="M1013,700.8h2.2c3.6,0,6.1-3,6.5-6.5l1.7-13.6c-6.2-3.5-11.3-8.4-15.1-14.4l-1.6,29.5
				C1007.4,698.7,1009.9,700.8,1013,700.8z"/>
			<path fill="#B2B2B2" d="M1008.3,666.3c-0.6-0.9-1.1-1.9-1.6-2.9c-0.6,1.2-1.3,2.3-2,3.4l2,29L1008.3,666.3z"/>
			<path fill="#FFD684" d="M948.1,658.2c0.3-1.7,1.2-2.9,2.5-3.1c1.6-0.2,3.2,1.6,3.4,4c0.2,2.4-0.9,4.5-2.6,4.6
				c-1.3,0.1-2.6-1.1-3.1-2.8c-5.2-2.2-11.4-2-17.6-1c0.1,0.4,0.3,0.7,0.5,1.1c6.5,14.7,21.2,25,38.3,25c7.4,0,14.4-2,20.4-5.4
				c6-3.3,11-8.1,14.7-13.8c0.7-1.1,1.4-2.2,2-3.4c0.5,1,1.1,1.9,1.6,2.9c3.7,6,8.9,10.9,15.1,14.4c6,3.4,13,5.4,20.4,5.4
				c14.9,0,28-7.8,35.4-19.6c1.8-2.9,3.3-6.1,4.4-9.4c-6.6,0.7-13.1,2-19.6,3.7c-0.5,1.9-1.8,3.3-3.2,3.1c-1.6-0.2-2.8-2.2-2.6-4.6
				c0.2-2.4,1.7-4.2,3.4-4c1.6,0.2,2.6,2,2.6,4.2c6.5-1.8,13.1-3.1,19.8-3.8c1-3.6,1.6-7.4,1.6-11.4c0-1.9-0.2-3.8-0.5-5.7
				c-4.1,0.6-8.1,1.4-12.2,2.2c-7.2,1.5-14.3,4.3-21.4,5.7c-0.4,2.1-1.8,3.7-3.3,3.5c-1.6-0.2-2.8-2.2-2.6-4.6
				c0.2-2.4,1.7-4.2,3.4-4c1.2,0.1,2.2,1.3,2.5,2.9c6.7-2.9,14.7-4.3,21.6-5.8c3.8-0.8,7.7-1.5,11.5-2.1c-1.2-4.6-3.3-9.2-6.1-13.5
				c-3.6,1.3-7.3,2.8-10.9,4.2c0.2,1.6-0.4,3.1-1.6,3.6c-1.5,0.6-3.5-0.7-4.4-2.9c-0.9-2.2-0.4-4.5,1.2-5.1c1.3-0.5,2.9,0.4,3.9,2
				c3.2-1.7,6.5-3.1,9.9-4.4c-9.9-13.1-26.3-22.8-41.1-22.8c-0.6,0-1.1,0-1.7,0.1c1.6,3.4,1.3,6.3-0.5,9.2
				c-3.9,6.3-17.6,20.1-27,21.2c-9.4-1.1-23.2-14.8-27-21.2c-1.8-3-2.2-5.9-0.5-9.3c-0.3,0-0.6,0-0.9,0c-14.9,0-31.3,9.8-41.2,22.9
				c3.2,1.1,6.3,2.3,9.4,3.6c1-1.2,2.4-1.8,3.5-1.4c1.2,0.5,1.7,1.9,1.6,3.6c0.9,0.5,0.4,1.9-0.6,1.9c-0.9,2-2.8,3.2-4.2,2.6
				c-1.4-0.6-1.9-2.5-1.4-4.5c-3.4-1.1-6.7-2.2-10.1-3.2c-3.3,5-5.6,10.4-6.6,15.8c11.4-0.2,22.7,1,33.4,3.7c0.4-0.6,1-1.1,1.7-1.1
				c1.2-0.1,2.4,0.9,3,2.4c0.2,0.1,0.4,0.1,0.6,0.2c1.2,0.4,0.8,1.9-0.2,2c0,2.1-1.1,3.9-2.6,4c-1.6,0.2-3.2-1.6-3.4-4
				c0-0.4,0-0.8,0-1.1c-10.9-2-21.9-3.1-33-2.7c-0.1,0.7-0.1,1.4-0.1,2.1c0,4.6,0.8,9.1,2.2,13.3C936.1,656.4,942.5,656,948.1,658.2
				z"/>
			<path fill="#534121" d="M979.2,606.7c3.9,6.3,17.6,20.1,27,21.2c9.4-1.1,23.2-14.8,27-21.2c1.8-3,2.2-5.9,0.5-9.2c0,0,0,0,0-0.1
				c-6-7.4-16.1-12.3-27.6-12.3s-21.6,4.9-27.6,12.3c0,0,0,0,0,0C977,600.9,977.4,603.8,979.2,606.7z M1000.3,589
				c5.4-0.5,9.8,0.3,9.9,1.9c0.1,1.6-4.2,3.3-9.6,3.9c-5.4,0.5-9.8-0.3-9.9-1.9C990.6,591.3,994.9,589.6,1000.3,589z"/>
			<path fill="#FFFFFF" d="M1000.6,594.8c5.4-0.5,9.7-2.3,9.6-3.9c-0.1-1.6-4.5-2.5-9.9-1.9c-5.4,0.5-9.7,2.3-9.6,3.9
				C990.8,594.5,995.2,595.4,1000.6,594.8z"/>
			<path fill="#FFFFFF" d="M951.8,597.5c9.6,2.8,20.8-6.6,25-20.9c4.2-14.4-0.2-28.3-9.8-31.1c-9.6-2.8-20.8,6.6-25,20.9
				C937.8,580.7,942.2,594.7,951.8,597.5z M947,569.7c4-9.3,12.2-14.7,18.4-12.1c6.2,2.6,8.1,12.3,4.1,21.7
				c-4,9.3-12.2,14.7-18.4,12.1C944.8,588.7,943,579,947,569.7z"/>
			<path fill="#534121" d="M951.1,591.4c6.2,2.6,14.5-2.8,18.4-12.1c4-9.3,2.1-19-4.1-21.7c-6.2-2.6-14.5,2.8-18.4,12.1
				C943,579,944.8,588.7,951.1,591.4z M949,570.6c3.2-7.6,10-12.1,15.1-9.9c5.1,2.2,6.6,10.1,3.4,17.7c-3.2,7.6-10,12.1-15.1,9.9
				C947.3,586.1,945.8,578.2,949,570.6z"/>
			<path fill="#C0975C" d="M952.4,588.3c5.1,2.2,11.9-2.3,15.1-9.9c3.2-7.6,1.7-15.6-3.4-17.7c-5.1-2.2-11.9,2.3-15.1,9.9
				C945.8,578.2,947.3,586.1,952.4,588.3z M955.4,566.3c1.4,0,2.6,0.6,3.5,1.6c1.3-0.5,2.6-0.5,3.8,0c3.3,1.4,4.2,6.5,2.2,11.4
				c-2.1,4.9-6.4,7.7-9.7,6.4c-3.2-1.4-4.2-6.2-2.3-11c-1.2-0.8-2-2.2-2-3.8C950.8,568.3,952.9,566.3,955.4,566.3z"/>
			<path fill="#1C1B15" d="M955.4,575.4c-1,0-1.8-0.3-2.6-0.8c-1.9,4.8-0.9,9.7,2.3,11c3.3,1.4,7.6-1.5,9.7-6.4
				c2.1-4.9,1.1-10-2.2-11.4c-1.2-0.5-2.5-0.4-3.8,0c0.7,0.8,1.1,1.8,1.1,2.9C960,573.4,957.9,575.4,955.4,575.4z"/>
			<path fill="#FFFFFF" d="M952.8,574.6c0.7,0.5,1.6,0.8,2.6,0.8c2.5,0,4.6-2,4.6-4.6c0-1.1-0.4-2.1-1.1-2.9c-0.8-1-2.1-1.6-3.5-1.6
				c-2.5,0-4.6,2-4.6,4.6C950.8,572.4,951.6,573.8,952.8,574.6z"/>
			<path fill="#FFFFFF" d="M1061.6,597.5c9.6-2.8,14-16.7,9.8-31.1c-4.2-14.4-15.4-23.7-25-20.9c-9.6,2.8-14,16.7-9.8,31.1
				C1040.8,590.9,1052,600.3,1061.6,597.5z M1047.9,557.6c6.2-2.6,14.5,2.8,18.4,12.1c4,9.3,2.1,19-4.1,21.7
				c-6.2,2.6-14.5-2.8-18.4-12.1C1039.9,570,1041.7,560.3,1047.9,557.6z"/>
			<path fill="#534121" d="M1062.3,591.4c6.2-2.6,8.1-12.3,4.1-21.7c-4-9.3-12.2-14.7-18.4-12.1c-6.2,2.6-8.1,12.3-4.1,21.7
				C1047.8,588.6,1056.1,594,1062.3,591.4z M1049.2,560.7c5.1-2.2,11.9,2.3,15.1,9.9c3.2,7.6,1.7,15.6-3.4,17.7
				c-5.1,2.2-11.9-2.3-15.1-9.9C1042.6,570.8,1044.1,562.8,1049.2,560.7z"/>
			<path fill="#C0975C" d="M1061,588.3c5.1-2.2,6.6-10.1,3.4-17.7c-3.2-7.6-10-12.1-15.1-9.9c-5.1,2.2-6.6,10.1-3.3,17.7
				C1049.1,586,1055.9,590.5,1061,588.3z M1050.7,567.9c1.2-0.5,2.5-0.4,3.8,0c0.8-1,2.1-1.6,3.5-1.6c2.5,0,4.6,2,4.6,4.6
				c0,1.6-0.8,2.9-2,3.8c1.9,4.8,0.9,9.7-2.3,11c-3.3,1.4-7.6-1.5-9.7-6.4C1046.4,574.4,1047.4,569.2,1050.7,567.9z"/>
			<path fill="#1C1B15" d="M1058.2,585.6c3.2-1.4,4.2-6.2,2.3-11c-0.7,0.5-1.6,0.8-2.6,0.8c-2.5,0-4.6-2-4.6-4.6
				c0-1.1,0.4-2.1,1.1-2.9c-1.3-0.5-2.6-0.5-3.8,0c-3.3,1.4-4.2,6.5-2.2,11.4C1050.6,584.2,1054.9,587,1058.2,585.6z"/>
			<path fill="#FFFFFF" d="M1057.9,575.4c1,0,1.8-0.3,2.6-0.8c1.2-0.8,2-2.2,2-3.8c0-2.5-2-4.6-4.6-4.6c-1.4,0-2.6,0.6-3.5,1.6
				c-0.7,0.8-1.1,1.8-1.1,2.9C1053.4,573.4,1055.4,575.4,1057.9,575.4z"/>
			<path fill="#C0975C" d="M951,626.2c0.2-1.7-0.4-3.1-1.6-3.6c-1.1-0.4-2.5,0.1-3.5,1.4C947.7,624.7,949.3,625.5,951,626.2
				C951,626.2,951,626.2,951,626.2z"/>
			<path fill="#C0975C" d="M944.9,626.2c-0.6,2,0,4,1.4,4.5c1.4,0.6,3.3-0.6,4.2-2.6c-0.1,0-0.2,0-0.3,0
				C948.4,627.4,946.7,626.8,944.9,626.2z"/>
			<path fill="#C0975C" d="M963.3,641.3c-0.7,0.1-1.3,0.5-1.7,1.1c1.6,0.4,3.2,0.8,4.8,1.3C965.7,642.2,964.5,641.2,963.3,641.3z"/>
			<path fill="#C0975C" d="M960.8,644.8c0,0.4,0,0.7,0,1.1c0.2,2.4,1.7,4.2,3.4,4c1.5-0.1,2.6-1.9,2.6-4c-0.1,0-0.2,0-0.3,0
				C964.5,645.6,962.6,645.2,960.8,644.8z"/>
			<path fill="#C0975C" d="M951.5,663.8c1.6-0.2,2.8-2.2,2.6-4.6c-0.2-2.4-1.7-4.2-3.4-4c-1.3,0.1-2.2,1.4-2.5,3.1
				c0.9,0.4,1.8,0.8,2.7,1.3c1.3,0.8,0.1,2.8-1.2,2.1c-0.4-0.2-0.9-0.4-1.3-0.6C948.9,662.8,950.1,664,951.5,663.8z"/>
			<path fill="#C0975C" d="M1063.7,626.4c1-0.6,2-1.2,3.1-1.7c-1-1.7-2.6-2.5-3.9-2c-1.5,0.6-2.1,2.9-1.2,5.1
				c0.9,2.2,2.8,3.5,4.4,2.9c1.2-0.5,1.7-1.9,1.6-3.6c-1,0.4-2.1,0.8-3.1,1.2C1063.3,628.9,1062.6,627,1063.7,626.4z"/>
			<path fill="#C0975C" d="M1047.8,646c1.2-0.7,2.4-1.3,3.7-1.8c-0.3-1.6-1.3-2.8-2.5-2.9c-1.6-0.2-3.2,1.6-3.4,4
				c-0.2,2.4,0.9,4.5,2.6,4.6c1.5,0.1,2.9-1.4,3.3-3.5c-1.1,0.2-2.2,0.4-3.2,0.6C1047.6,647.1,1047.2,646.4,1047.8,646z"/>
			<path fill="#C0975C" d="M1059.9,661.8c-0.7,0.2-1-0.9-0.3-1.1c1.5-0.5,3.1-0.9,4.6-1.4c0.1-2.2-1-4.1-2.6-4.2
				c-1.6-0.2-3.2,1.6-3.4,4c-0.2,2.4,0.9,4.5,2.6,4.6c1.4,0.1,2.8-1.2,3.2-3.1C1062.7,661.1,1061.3,661.4,1059.9,661.8z"/>
			<path fill="#534121" d="M950.2,628.1c0.1,0,0.2,0,0.3,0c0.9,0.1,1.5-1.4,0.6-1.9c0,0,0,0,0,0c-1.7-0.8-3.3-1.5-5-2.2
				c-3.1-1.3-6.2-2.5-9.4-3.6c-17.7-6.3-36.6-9.8-55.2-9.6c-1,0-0.9,1.4,0,1.5c18.3,2.1,36,5.5,53.4,10.7c3.4,1,6.7,2.1,10.1,3.2
				C946.7,626.8,948.4,627.4,950.2,628.1z"/>
			<path fill="#534121" d="M960.8,644.8c1.9,0.3,3.7,0.7,5.6,1.1c0.1,0,0.2,0,0.3,0c1-0.1,1.4-1.7,0.2-2c-0.2-0.1-0.4-0.1-0.6-0.2
				c-1.6-0.5-3.2-0.9-4.8-1.3c-10.6-2.7-22-3.9-33.4-3.7c-20.7,0.4-41.5,5.7-58.4,16c-0.7,0.4-0.2,1.8,0.6,1.4
				c15.2-6.3,30.6-11.6,47.1-13.4c3.5-0.4,6.9-0.6,10.3-0.7C938.9,641.7,949.8,642.8,960.8,644.8z"/>
			<path fill="#534121" d="M948.3,661c0.4,0.2,0.9,0.4,1.3,0.6c1.4,0.7,2.5-1.3,1.2-2.1c-0.9-0.5-1.8-0.9-2.7-1.3
				c-5.6-2.2-12.1-1.8-18.3-0.8c-3.4,0.6-6.6,1.3-9.7,2c-11.7,2.6-24.4,6.1-34.6,12.5c-0.8,0.5-0.3,2,0.7,1.6
				c10.3-3.5,20.1-7.9,30.8-10.5c4.1-1,8.9-2.3,13.7-3.1C936.9,659,943.2,658.7,948.3,661z"/>
			<path fill="#534121" d="M1066.8,624.7c-1,0.5-2.1,1.1-3.1,1.7c-1,0.6-0.3,2.5,0.9,2c1-0.4,2.1-0.8,3.1-1.2
				c3.6-1.5,7.3-2.9,10.9-4.2c8.1-3,16.2-5.5,24.8-7c13.9-2.4,27.9-2.2,42-1.2c0.9,0.1,1.1-1.4,0.2-1.6c-13.6-2.6-27.7-2-41.4,0.2
				c-9.2,1.5-18.7,3.7-27.6,7.1C1073.2,621.5,1069.9,623,1066.8,624.7z"/>
			<path fill="#534121" d="M1073.1,638.5c-6.9,1.5-14.9,2.9-21.6,5.8c-1.3,0.5-2.5,1.1-3.7,1.8c-0.6,0.3-0.2,1.1,0.4,1
				c1.1-0.2,2.2-0.3,3.2-0.6c7.2-1.5,14.3-4.2,21.4-5.7c4-0.9,8.1-1.6,12.2-2.2c5-0.8,10-1.4,15.1-1.8c17.4-1.4,34.3,0.1,51.6,1.8
				c0.8,0.1,1-1.2,0.2-1.4c-17.3-3.9-35.8-4-53.4-2.5c-4.7,0.4-9.3,1-14,1.7C1080.8,637,1076.9,637.7,1073.1,638.5z"/>
			<path fill="#534121" d="M1064.2,659.4c-1.5,0.4-3.1,0.9-4.6,1.4c-0.7,0.2-0.4,1.3,0.3,1.1c1.4-0.4,2.8-0.8,4.1-1.1
				c6.4-1.7,13-2.9,19.6-3.7c1.9-0.2,3.8-0.4,5.7-0.5c9.6-0.6,18.8,0.6,28.4,1.1c0.5,0,0.6-0.7,0.1-0.8c-9.3-2.4-19.8-2.3-29.3-1.6
				c-1.5,0.1-3,0.2-4.4,0.4C1077.3,656.3,1070.7,657.6,1064.2,659.4z"/>
			<path fill="#FFE289" d="M1010.1,507.3c-1.3,0.2-2.6,0.3-3.9,0.3c-2.5,0-4.9-0.4-7.1-1c-33.7-2.6-55-6-55-6c0,0-2.7,9.6,25.4,15.2
				c4.7,0.9,10.3,1.8,16.8,2.4c5.9,0.6,12.7,1,20.4,1.3c10.1,0.3,18.7,0.2,26-0.3c5.9-0.4,11-1,15.4-1.7
				c26.2-4.4,26.4-14.2,26.4-14.2s0,0,0,0C1074.4,503.4,1044.3,509,1010.1,507.3z"/>
			<path fill="#FFDA5D" d="M1025.1,472.3c1.2,1.5,2.2,3.3,3,5.1c13.3-0.4,27.8-1.5,43.5-3.8c-5.3-15.2-16.7-27.3-47.5-31.8
				C1025.8,450.7,1025.6,463,1025.1,472.3z"/>
			<path fill="#FFDA5D" d="M988.2,471.4l2.3-30.1c-22.7,4.1-34.5,18.2-40.5,29.4v0c7.8,1.5,19.7,3.7,35.2,5.2
				C986,474.3,987,472.8,988.2,471.4z"/>
			<path fill="#FFDA5D" d="M1026.2,497.1c-3.5,5.3-9.3,9.2-16,10.3c34.1,1.7,64.2-3.9,64.6-4c0,0,0,0,0,0s0.1-0.6,0.2-1.7
				c0.2-1.8,0.3-4.9,0.1-8.7C1064.3,494.6,1046.2,497,1026.2,497.1z"/>
			<path fill="#FFDA5D" d="M944.2,500.6c0,0,21.3,3.4,55,6c-6.6-2-11.8-6.6-14.5-12.6c-16.2-2.1-30.4-4.7-40.1-6.7
				C943.4,495,944.2,500.6,944.2,500.6L944.2,500.6L944.2,500.6z"/>
			<path fill="#FFE289" d="M1006.3,463.3c7.7,0,14.5,3.5,18.8,9c0.5-9.3,0.7-21.6-1-30.5c-0.2-1.2-0.5-2.4-0.8-3.4
				c-19.7-2-32.6-0.2-32.6-0.2l-0.2,3.2l-2.3,30.1C992.5,466.5,999,463.3,1006.3,463.3z"/>
			<path fill="#CFA879" d="M1029.6,485.5c0,4.3-1.3,8.2-3.5,11.6c20-0.1,38.1-2.4,48.9-4.2c-0.2-5.4-1.1-12.3-3.6-19.3
				c-15.7,2.3-30.2,3.4-43.5,3.8C1029.1,479.9,1029.6,482.6,1029.6,485.5z"/>
			<path fill="#CFA879" d="M984.7,494c-1.2-2.6-1.8-5.5-1.8-8.5c0-3.4,0.8-6.6,2.3-9.5c-15.5-1.5-27.4-3.7-35.2-5.2
				c-3.1,5.8-4.6,11.6-5.4,16.6C954.3,489.3,968.5,491.9,984.7,494z"/>
			<path fill="#655A61" d="M1010.1,507.3c6.8-1.1,12.6-4.9,16-10.3c2.2-3.4,3.5-7.4,3.5-11.6c0-2.9-0.6-5.6-1.6-8.1
				c-0.8-1.8-1.8-3.5-3-5.1c-4.3-5.5-11.1-9-18.8-9c-7.3,0-13.8,3.2-18.1,8.1c-1.2,1.4-2.2,2.9-3,4.5c-1.4,2.9-2.3,6.1-2.3,9.5
				c0,3,0.6,5.9,1.8,8.5c2.6,6,7.9,10.6,14.5,12.6c2.2,0.7,4.6,1,7.1,1C1007.6,507.7,1008.9,507.5,1010.1,507.3z M989.9,485.5
				c0-8.9,7.6-16.1,17-16.1s17,7.2,17,16.1s-7.6,16.1-17,16.1S989.9,494.4,989.9,485.5z"/>
			<ellipse fill="#FFF9BA" cx="1007" cy="485.5" rx="17" ry="16.1"/>
		</g>
		<g>
			<path fill="#705933" d="M507.1,945c4-7.2,11.8-14.1,22.6-20.2c3.3-10.9,8.8-20.8,15.2-30.4c-25.7,10.8-41,24.4-41,39.1
				c0,6.1,2.6,12,7.5,17.5v0C509.7,949.1,508.3,947,507.1,945z"/>
			<path fill="#705933" d="M891.6,947c-0.3,0.4-0.6,0.9-0.9,1.3C891,947.9,891.3,947.5,891.6,947z"/>
			<path fill="#705933" d="M892.9,945c-0.3,0.6-0.7,1.1-1,1.7c2.7-4.3,4.2-8.7,4.2-13.2c0-15.3-16.6-29.4-44.2-40.4
				c6.2,9.4,12.4,19.5,16.5,30.7C880.2,930.2,888.6,937.3,892.9,945z"/>
			<path fill="#4F3D1D" d="M529.8,924.8c-10.8,6.2-18.6,13-22.6,20.2c1.1,2,2.6,4.1,4.3,6c4.1,4.7,9.8,9.2,16.9,13.4
				C525.3,949.2,526.3,936.3,529.8,924.8z"/>
			<path fill="#4F3D1D" d="M864.9,964.2c0,0,0.3,1.4,0.6,3.5c1-0.5,2-1.1,3-1.6C866.8,964.9,864.9,964.2,864.9,964.2z"/>
			<path fill="#4F3D1D" d="M531.8,966.4c1,0.6,2.1,1.1,3.2,1.7c0.3-2.3,0.7-3.8,0.7-3.8S533.6,964.9,531.8,966.4z"/>
			<path fill="#4F3D1D" d="M891.6,947c0.1-0.1,0.2-0.2,0.2-0.3c0.4-0.6,0.7-1.1,1-1.7c-4.2-7.6-12.7-14.8-24.4-21.3
				c4.5,12,6.6,25.3,3.9,40.3c8-4.8,14.2-10,18.3-15.5c0-0.1,0.1-0.1,0.1-0.2C891,947.9,891.3,947.5,891.6,947z"/>
			<path fill="#FFD684" d="M613.6,788.9c-10-6.7-27.1-8.8-33.7,6.8c-8,18.8,8.3,31.5,12.6,34.4c5.9-14.2,14.6-26.9,25.4-37.6
				c-0.4-0.4-0.8-0.9-1.3-1.3C615.4,790.4,614.4,789.6,613.6,788.9C613.6,788.9,613.6,788.9,613.6,788.9z"/>
			<path fill="#FFD684" d="M806.3,830.7c5.5-4.1,18.8-16.2,11.4-33.6c-7.4-17.3-27.6-12.7-36.8-4.3
				C791.7,803.5,800.4,816.4,806.3,830.7z"/>
			<path fill="#C0975C" d="M757.9,905c7.9,4.6,15.1,11,20.6,18.2c10.3-3.9,21.3-6.4,31.8-8.1c15.7-2.5,32-3.2,47.7-0.2
				c1.1,0.2,0.8,1.9-0.3,1.9c-16.2-1.1-32.3-1.4-48.4,1.4c-10,1.7-19.4,4.7-28.6,8.1c3.3,4.9,5.7,10.2,7,15.5
				c5.3-0.8,10.7-1.5,16.1-2c20.3-1.8,41.6-1.7,61.5,2.8c0.9,0.2,0.7,1.7-0.2,1.6c-19.9-2-39.4-3.6-59.4-2c-5.8,0.5-11.6,1.1-17.4,2
				c0.4,2.2,0.6,4.4,0.6,6.6c0,4.6-0.6,9-1.8,13.1c1.7-0.2,3.4-0.3,5.1-0.5c11-0.8,23-1,33.8,1.8c0.5,0.1,0.4,1-0.1,1
				c-11-0.6-21.6-2-32.7-1.3c-2.2,0.1-4.4,0.3-6.5,0.6c-1.2,3.9-3,7.5-5.1,10.9c-2.1,5.8-5,11.3-8.3,16.4
				c38.3-5,70.6-13.9,92.4-25.1c-0.3-2.1-0.6-3.5-0.6-3.5s1.9,0.7,3.6,2c1.3-0.7,2.5-1.4,3.7-2.1c2.7-15,0.6-28.3-3.9-40.3
				c-4.1-11.2-10.3-21.3-16.5-30.7c-0.5-0.8-1-1.6-1.6-2.3c-1.7-0.3,1.1-1.7-1.6-2.5c-9-10.8-20.7-19.2-34.1-24.2
				c-0.2-2.6-0.6-5.3-1-7.9c-7.7,3.1-17.8,6.5-26.7,7.3C786.2,881,775.5,900,757.9,905z"/>
			<path fill="#C0975C" d="M653.8,793.3c-7.3-0.5-13.8-1.3-19.6-2.4c5.2,3.4,11.8,7.8,19.4,12.6c5.4-2.2,11.5-2.9,17.3-1.9l4.6,5
				c-4.5,0-8.7,0.9-12.8,2.5c16.2,9.9,35.5,20.7,54.9,28.3c1.4-4.2,3.7-7.3,6.7-8.8c18.2-8.8,50.3,5.8,55.2,11.4
				c4,4.6,6.3,10.5,7.1,16.9c5.8-0.1,14.1-2,25.4-8.7c-0.9-3.9-2-7.7-3.3-11.4c2.8-1.9,6.2-4.6,10.2-8.2c18.7-17,3.5-50.4-18-53
				c-11.2-1.4-19.8,5.3-25.5,12c-2.1-1.8-4.2-3.5-6.3-5.2C734.3,793.6,689.9,795.7,653.8,793.3z M817.7,797.1
				c7.4,17.4-5.9,29.5-11.4,33.6c-5.9-14.3-14.6-27.2-25.4-37.9C790.1,784.4,810.3,779.8,817.7,797.1z M743.6,803.9
				c9.6,3.7,18.7,11.5,19.7,21.8c-3.3-3.4-6.6-6.7-10.5-9.4c-7.9-5.4-18.9-9.8-28.6-9.7C730.6,802.9,736.4,801.1,743.6,803.9z"/>
			<path fill="#C0975C" d="M528.4,964.4c1.1,0.7,2.3,1.3,3.4,2c1.7-1.4,3.9-2.2,3.9-2.2s-0.4,1.6-0.7,3.8c8.3,4.2,18,8.1,29,11.5
				c10.6-5.4,22.8-8.7,34.2-11.2c3.5-0.8,7.3-1.7,11.1-2.3c-1.6-4.8-2.5-9.9-2.5-15.3c0-0.8,0-1.6,0.1-2.5c-4,0.1-7.9,0.4-11.9,0.8
				c-18.9,2.1-36.7,8.1-54.2,15.4c-1,0.4-1.5-1.1-0.7-1.6c19.5-11.9,43.5-17.9,67.3-18.4c1.1-6.3,3.8-12.5,7.6-18.3
				c-20.1-6-40.4-9.9-61.5-12.4c-1.1-0.1-1.1-1.7,0-1.7c21.4-0.2,43.3,3.8,63.6,11.1c11.4-15.1,30.3-26.4,47.4-26.4c0.3,0,0.7,0,1,0
				c0,0,0,0,0,0c6.9-8.6,18.5-14.2,31.8-14.2c13.2,0,24.9,5.6,31.8,14.2c0,0,0,0,0,0c0.4,0,0.9,0,1.3,0
				c-11.3-12.7-16.5-35.9-14.6-51.9c-16.4-8.2-40.7-20.5-61.8-31.8c-6.6,3.8-13,8.5-19.7,11.9c1.7-6.5,5.5-12.5,10.7-16.8
				c-12.3-6.8-22.7-12.9-28.7-17.2c0.5,0.4,0.9,0.8,1.3,1.3c-10.8,10.7-19.5,23.4-25.4,37.6c-4.3-2.9-20.6-15.6-12.6-34.4
				c6.6-15.5,23.7-13.4,33.7-6.8c-3.4-2.9-5.1-4.9-5.7-6.2c-5.4-2.6-9.6-5.4-12.9-8.1c-20.6,4.1-34.5,36.2-16.4,52.7
				c4.6,4.2,8.4,7.1,11.4,9c-3.1,8.8-5.2,18.1-6.1,27.7c-13.7,5.1-25.7,13.8-34.8,24.9c-1.6,0.4-2.6,4.4-3.7,4.6
				c-0.2,0.3-0.4,0.6-0.6,0.9c-6.4,9.6-11.9,19.4-15.2,30.4C526.3,936.3,525.3,949.2,528.4,964.4z M623.4,861.1
				c4.8-16.6,17.7-27.4,28.8-24.1c11.1,3.2,16.1,19.3,11.3,35.8c-4.8,16.6-17.7,27.4-28.8,24.1C623.6,893.7,618.5,877.6,623.4,861.1
				z"/>
			<path fill="#C0975C" d="M616.8,984.8c-2.8-4.4-5.4-9.6-5.9-14.6c-0.2-0.4-0.4-0.8-0.5-1.2c-5.6,0.9-11.1,2.5-15.8,3.6
				c-8.8,2.2-17.2,5.4-25.6,8.5c15.5,4.6,33.3,8.3,52.8,11.1C620.1,989.7,618.4,987.3,616.8,984.8z"/>
			<path fill="#AD8852" d="M781.5,976.4c-4.8,7.7-11.7,13.9-20,17.8c3.9-0.4,7.8-0.9,11.6-1.4C776.5,987.7,779.3,982.2,781.5,976.4z
				"/>
			<path fill="#AD8852" d="M717.1,992.8l-0.5,4.4c3.4-0.1,6.7-0.2,10-0.4C723.3,995.9,720.1,994.5,717.1,992.8z"/>
			<path fill="#AD8852" d="M610.9,970.2c0.4,5,3,10.2,5.9,14.6c1.6,2.5,3.3,5,5,7.4c3.7,0.5,7.4,1,11.2,1.5
				C623.2,988.6,615.4,980.3,610.9,970.2z"/>
			<path fill="#AD8852" d="M678.6,992.8c-2.8,1.6-5.8,2.9-8.9,3.9c3.1,0.2,6.3,0.3,9.4,0.4L678.6,992.8z"/>
			<path fill="#1C1B15" d="M634.5,825.2c6.6-3.4,13-8.1,19.7-11.9c-3.1-1.6-6.1-3.3-8.9-4.9C640,812.7,636.2,818.6,634.5,825.2z"/>
			<path fill="#1C1B15" d="M670.9,801.6c-5.8-1-11.8-0.3-17.3,1.9c2.9,1.8,5.9,3.7,9.1,5.7c4-1.6,8.3-2.6,12.8-2.5L670.9,801.6z"/>
			<path fill="#1C1B15" d="M763.3,825.7c-1-10.3-10-18.1-19.7-21.8c-7.2-2.7-13-0.9-19.4,2.7c9.6-0.1,20.6,4.3,28.6,9.7
				C756.7,818.9,760,822.3,763.3,825.7z"/>
			<path fill="#FFFDFA" d="M695.5,976.9c-4.3,6.6-10.1,12.1-16.9,15.9l0.5,4.3c5.9,0.2,11.8,0.3,17.8,0.3L695.5,976.9z"/>
			<path fill="#FFFDFA" d="M717.1,992.8c-7.1-4-13.1-9.7-17.4-16.6l-1.2,21.2c0.5,0,1,0,1.4,0c5.6,0,11.1-0.1,16.6-0.2L717.1,992.8z
				"/>
			<path fill="#B2B2B2" d="M699.7,976.2c-0.7-1.1-1.3-2.2-1.9-3.3c-0.7,1.4-1.5,2.7-2.3,4l1.4,20.6c0.5,0,1.1,0,1.6,0L699.7,976.2z"
				/>
			<path fill="#FFD684" d="M781.5,976.4c2.1-3.4,3.8-7,5.1-10.9c-7.6,0.8-15.1,2.3-22.6,4.2c-0.5,2.2-2.1,3.8-3.7,3.6
				c-1.9-0.2-3.2-2.6-2.9-5.3s2-4.8,3.9-4.6c1.8,0.2,3,2.3,3,4.9c7.5-2.1,15.1-3.5,22.9-4.4c1.2-4.2,1.8-8.6,1.8-13.1
				c0-2.2-0.2-4.4-0.6-6.6c-4.7,0.7-9.4,1.6-14,2.5c-8.2,1.7-16.4,4.9-24.7,6.6c-0.4,2.4-2.1,4.2-3.8,4c-1.9-0.2-3.2-2.6-2.9-5.3
				s2-4.8,3.9-4.6c1.4,0.1,2.5,1.5,2.9,3.3c7.8-3.3,17-4.9,24.9-6.6c4.4-0.9,8.8-1.7,13.3-2.4c-1.3-5.4-3.8-10.6-7-15.5
				c-4.2,1.5-8.4,3.2-12.6,4.9c0.2,1.9-0.5,3.6-1.8,4.1c-1.8,0.7-4-0.8-5-3.4c-1-2.6-0.4-5.2,1.3-5.9c1.5-0.6,3.4,0.4,4.5,2.3
				c3.6-1.9,7.4-3.6,11.4-5.1c-5.5-7.2-12.7-13.6-20.6-18.2c-2.6,0.7-5.4,1.2-8.3,1.2c-7.5,0.2-13.9-3.5-19.1-9.3
				c-0.5,0-0.9,0-1.3,0c1.9,3.9,1.5,7.2-0.6,10.7c-4.5,7.3-20.3,23.1-31.2,24.4c-10.9-1.3-26.7-17.1-31.2-24.4
				c-2.1-3.4-2.5-6.8-0.6-10.7c-0.3,0-0.7,0-1,0c-17.1,0-36.1,11.3-47.4,26.4c3.6,1.3,7.2,2.7,10.8,4.2c1.1-1.4,2.7-2.1,4-1.6
				c1.4,0.5,2,2.2,1.8,4.1c1.1,0.5,0.4,2.3-0.6,2.2c-1.1,2.3-3.2,3.6-4.9,3c-1.6-0.6-2.2-2.9-1.6-5.2c-3.9-1.3-7.7-2.6-11.6-3.7
				c-3.8,5.8-6.5,12-7.6,18.3c13.1-0.3,26.2,1.2,38.4,4.2c0.5-0.7,1.2-1.2,2-1.3c1.4-0.1,2.8,1,3.5,2.8c0.2,0.1,0.5,0.1,0.7,0.2
				c1.3,0.4,1,2.2-0.3,2.3c0,2.4-1.2,4.5-3,4.6c-1.9,0.2-3.6-1.9-3.9-4.6c0-0.4,0-0.9,0-1.3c-12.6-2.3-25.2-3.6-38-3.2
				c-0.1,0.8-0.1,1.6-0.1,2.5c0,5.3,0.9,10.5,2.5,15.3c7.2-1.2,14.6-1.7,21.1,0.9c0.3-1.9,1.4-3.4,2.9-3.5c1.9-0.2,3.6,1.9,3.9,4.6
				s-1.1,5.1-2.9,5.3c-1.6,0.2-3-1.2-3.6-3.3c-6-2.6-13.2-2.3-20.2-1.2c0.2,0.4,0.3,0.8,0.5,1.2c4.5,10.1,12.3,18.4,22,23.4
				c11.7,1.4,24,2.4,36.7,3.1c3.1-1,6.1-2.3,8.9-3.9c6.9-3.9,12.7-9.3,16.9-15.9c0.8-1.3,1.6-2.6,2.3-4c0.6,1.1,1.2,2.2,1.9,3.3
				c4.3,6.9,10.3,12.6,17.4,16.6c3,1.7,6.2,3,9.5,4.1c12-0.5,23.7-1.4,34.9-2.6C769.7,990.3,776.6,984.1,781.5,976.4z"/>
			<path fill="#534121" d="M666.2,907.6c4.5,7.3,20.3,23.1,31.2,24.4c10.9-1.3,26.7-17.1,31.2-24.4c2.1-3.4,2.5-6.8,0.6-10.7
				c0,0,0,0,0,0c-6.9-8.6-18.5-14.2-31.8-14.2c-13.2,0-24.9,5.6-31.8,14.2c0,0,0,0,0,0C663.7,900.8,664.1,904.2,666.2,907.6z
				 M679.4,891.7c-0.1-1.8,4.8-3.8,11-4.5c6.2-0.6,11.3,0.4,11.4,2.2c0.1,1.8-4.8,3.8-11,4.5C684.7,894.5,679.6,893.6,679.4,891.7z"
				/>
			<path fill="#FFFFFF" d="M690.9,893.9c6.2-0.6,11.1-2.6,11-4.5c-0.1-1.8-5.2-2.8-11.4-2.2c-6.2,0.6-11.1,2.6-11,4.5
				C679.6,893.6,684.7,894.5,690.9,893.9z"/>
			<path fill="#FFFFFF" d="M634.6,896.9c11.1,3.2,23.9-7.6,28.8-24.1c4.8-16.6-0.2-32.6-11.3-35.8c-11.1-3.2-23.9,7.6-28.8,24.1
				C618.5,877.6,623.6,893.7,634.6,896.9z M629.1,864.9c4.6-10.7,14.1-17,21.2-13.9c7.2,3,9.3,14.2,4.7,25
				c-4.6,10.7-14.1,17-21.2,13.9C626.6,886.9,624.5,875.7,629.1,864.9z"/>
			<path fill="#534121" d="M633.8,889.9c7.2,3,16.7-3.2,21.2-13.9c4.6-10.7,2.5-21.9-4.7-25c-7.2-3-16.7,3.2-21.2,13.9
				C624.5,875.7,626.6,886.9,633.8,889.9z M631.4,865.9c3.7-8.8,11.5-13.9,17.4-11.4c5.9,2.5,7.6,11.6,3.9,20.4
				c-3.7,8.8-11.5,13.9-17.4,11.4C629.4,883.9,627.7,874.7,631.4,865.9z"/>
			<path fill="#C0975C" d="M635.3,886.4c5.9,2.5,13.7-2.6,17.4-11.4c3.7-8.8,2-17.9-3.9-20.4c-5.9-2.5-13.7,2.6-17.4,11.4
				C627.7,874.7,629.4,883.9,635.3,886.4z M633.5,866.2c0-2.9,2.4-5.3,5.3-5.3c1.6,0,3,0.7,4,1.9c1.5-0.6,3-0.6,4.4-0.1
				c3.8,1.6,4.9,7.5,2.5,13.1s-7.4,8.9-11.2,7.3c-3.7-1.6-4.8-7.2-2.7-12.7C634.4,869.6,633.5,868,633.5,866.2z"/>
			<path fill="#1C1B15" d="M638.5,883.3c3.8,1.6,8.8-1.7,11.2-7.3s1.3-11.5-2.5-13.1c-1.4-0.6-2.9-0.5-4.4,0.1
				c0.8,0.9,1.3,2.1,1.3,3.4c0,2.9-2.4,5.3-5.3,5.3c-1.1,0-2.1-0.3-3-0.9C633.6,876.1,634.8,881.7,638.5,883.3z"/>
			<path fill="#FFFFFF" d="M644.1,866.2c0-1.3-0.5-2.5-1.3-3.4c-1-1.1-2.4-1.9-4-1.9c-2.9,0-5.3,2.4-5.3,5.3c0,1.8,0.9,3.4,2.3,4.3
				c0.8,0.6,1.9,0.9,3,0.9C641.7,871.5,644.1,869.1,644.1,866.2z"/>
			<path fill="#C0975C" d="M626.7,930c-0.7,2.3,0,4.6,1.6,5.2c1.7,0.7,3.8-0.7,4.9-3c-0.1,0-0.2,0-0.3-0.1
				C630.7,931.5,628.7,930.7,626.7,930z"/>
			<path fill="#C0975C" d="M633.7,930.1c0.2-1.9-0.4-3.6-1.8-4.1c-1.3-0.5-2.9,0.2-4,1.6C629.9,928.3,631.8,929.2,633.7,930.1
				C633.7,930.1,633.7,930.1,633.7,930.1z"/>
			<path fill="#C0975C" d="M647.9,947.5c-0.8,0.1-1.5,0.6-2,1.3c1.8,0.5,3.7,1,5.5,1.5C650.7,948.5,649.3,947.4,647.9,947.5z"/>
			<path fill="#C0975C" d="M651.4,952.8c-2.2-0.5-4.3-0.9-6.5-1.3c0,0.4,0,0.9,0,1.3c0.3,2.8,2,4.8,3.9,4.6c1.7-0.2,3-2.2,3-4.6
				C651.7,952.8,651.6,952.8,651.4,952.8z"/>
			<path fill="#C0975C" d="M632.2,970.8c-0.5-0.3-1-0.5-1.5-0.7c0.6,2,2.1,3.4,3.6,3.3c1.9-0.2,3.2-2.6,2.9-5.3s-2-4.8-3.9-4.6
				c-1.5,0.1-2.6,1.6-2.9,3.5c1.1,0.4,2.1,0.9,3.1,1.5C635.1,969.4,633.7,971.7,632.2,970.8z"/>
			<path fill="#C0975C" d="M763.5,930.2c1.2-0.7,2.4-1.3,3.6-2c-1.2-1.9-3-2.9-4.5-2.3c-1.8,0.7-2.4,3.4-1.3,5.9
				c1,2.6,3.3,4.1,5,3.4c1.3-0.5,2-2.2,1.8-4.1c-1.2,0.5-2.4,0.9-3.6,1.4C763.1,933.1,762.3,930.9,763.5,930.2z"/>
			<path fill="#C0975C" d="M745.2,952.9c1.3-0.8,2.8-1.4,4.2-2.1c-0.4-1.8-1.4-3.2-2.9-3.3c-1.9-0.2-3.6,1.9-3.9,4.6
				s1.1,5.1,2.9,5.3c1.7,0.2,3.4-1.6,3.8-4c-1.2,0.3-2.5,0.5-3.7,0.7C745.1,954.2,744.6,953.3,745.2,952.9z"/>
			<path fill="#C0975C" d="M759.2,971.1c-0.8,0.2-1.1-1-0.3-1.2c1.8-0.6,3.5-1.1,5.3-1.6c0.1-2.6-1.2-4.7-3-4.9
				c-1.9-0.2-3.6,1.9-3.9,4.6s1.1,5.1,2.9,5.3c1.6,0.2,3.2-1.4,3.7-3.6C762.4,970.2,760.8,970.6,759.2,971.1z"/>
			<path fill="#534121" d="M632.8,932.2c0.1,0,0.2,0.1,0.3,0.1c1.1,0.1,1.7-1.7,0.6-2.2c0,0,0,0,0,0c-1.9-0.9-3.8-1.7-5.8-2.5
				c-3.5-1.5-7.1-2.9-10.8-4.2c-20.4-7.2-42.2-11.3-63.6-11.1c-1.1,0-1.1,1.6,0,1.7c21.1,2.4,41.4,6.3,61.5,12.4
				c3.9,1.2,7.8,2.4,11.6,3.7C628.7,930.7,630.7,931.5,632.8,932.2z"/>
			<path fill="#534121" d="M644.9,951.5c2.2,0.4,4.3,0.8,6.5,1.3c0.1,0,0.3,0,0.4,0c1.2-0.1,1.6-1.9,0.3-2.3
				c-0.2-0.1-0.5-0.1-0.7-0.2c-1.8-0.5-3.6-1-5.5-1.5c-12.2-3.1-25.3-4.5-38.4-4.2c-23.8,0.5-47.9,6.5-67.3,18.4
				c-0.8,0.5-0.3,2,0.7,1.6c17.5-7.3,35.3-13.3,54.2-15.4c4-0.4,8-0.7,11.9-0.8C619.7,948,632.4,949.2,644.9,951.5z"/>
			<path fill="#534121" d="M594.6,972.6c4.7-1.2,10.2-2.7,15.8-3.6c7-1.2,14.2-1.4,20.2,1.2c0.5,0.2,1,0.5,1.5,0.7
				c1.6,0.8,2.9-1.5,1.4-2.4c-1-0.6-2.1-1.1-3.1-1.5c-6.5-2.5-13.9-2.1-21.1-0.9c-3.9,0.7-7.6,1.6-11.1,2.3
				c-11.3,2.5-23.5,5.8-34.2,11.2c1.6,0.5,3.3,1,5,1.5C577.4,978,585.8,974.7,594.6,972.6z"/>
			<path fill="#534121" d="M767.1,928.3c-1.2,0.6-2.4,1.3-3.6,2c-1.2,0.7-0.4,2.9,1,2.3c1.2-0.5,2.4-1,3.6-1.4
				c4.2-1.7,8.4-3.3,12.6-4.9c9.3-3.4,18.7-6.3,28.6-8.1c16.1-2.8,32.2-2.5,48.4-1.4c1.1,0.1,1.3-1.7,0.3-1.9
				c-15.7-3-31.9-2.3-47.7,0.2c-10.6,1.7-21.5,4.2-31.8,8.1C774.5,924.7,770.7,926.3,767.1,928.3z"/>
			<path fill="#534121" d="M774.4,944.2c-8,1.7-17.2,3.3-24.9,6.6c-1.5,0.6-2.9,1.3-4.2,2.1c-0.7,0.4-0.2,1.3,0.5,1.2
				c1.2-0.2,2.5-0.4,3.7-0.7c8.3-1.7,16.5-4.9,24.7-6.6c4.7-1,9.3-1.8,14-2.5c5.8-0.9,11.6-1.6,17.4-2c20-1.6,39.6,0.1,59.4,2
				c0.9,0.1,1.1-1.4,0.2-1.6c-19.9-4.5-41.2-4.6-61.5-2.8c-5.4,0.5-10.8,1.1-16.1,2C783.2,942.5,778.8,943.2,774.4,944.2z"/>
			<path fill="#534121" d="M764.2,968.3c-1.8,0.5-3.5,1-5.3,1.6c-0.8,0.3-0.5,1.5,0.3,1.2c1.6-0.5,3.2-0.9,4.8-1.3
				c7.4-2,14.9-3.4,22.6-4.2c2.2-0.2,4.3-0.4,6.5-0.6c11.1-0.7,21.7,0.7,32.7,1.3c0.6,0,0.7-0.8,0.1-1c-10.7-2.8-22.8-2.6-33.8-1.8
				c-1.7,0.1-3.4,0.3-5.1,0.5C779.3,964.8,771.6,966.2,764.2,968.3z"/>
			<path fill="#2F2201" d="M624.6,767.8c-2.9-0.3-4.6-0.3-5.3-0.2C621,767.7,622.8,767.8,624.6,767.8
				C624.6,767.8,624.6,767.8,624.6,767.8z"/>
			<path fill="#2F2201" d="M774.4,753.1c-5.9-1.4-12.8-5-20.3-12.6c-23.2-23.4-15.7-45.3-61.5-40.4c-44.4,4.8-41.4,66.4-65.6,67.7
				C667.2,768.8,725.2,761.7,774.4,753.1z M684.6,750.2c0.5-0.5,0.8-0.8,1.3-1.2c0.5-0.4,1-0.7,1.5-1c1-0.6,2.1-1.3,3.3-1.7
				c1.1-0.4,2.1,1.2,1.2,2c-0.9,0.8-2.1,1.3-3.1,1.9c-0.6,0.3-1.1,0.6-1.7,0.8c-0.6,0.2-1.1,0.3-1.7,0.4
				C684.7,751.6,684.1,750.8,684.6,750.2z M716.3,722.9c1.6-0.1,2.5,2.5,0.9,3.2c-0.7,0.3-1.3,0.5-1.9,1c-0.5,0.5-0.9,1-1.1,1.7
				c-0.5,1.6-2.5,1.1-2.7-0.4C711.3,725.8,713.6,723,716.3,722.9z M712.1,743.8c0.6,0.2,1,0.2,1.6,0.4c0.5,0.2,0.9,0.5,1.3,0.7
				c0.9,0.5,1.9,0.9,2.5,1.8c0.5,0.7-0.1,1.9-1,1.8c-1.1-0.1-1.9-0.8-2.8-1.4c-0.5-0.3-1-0.6-1.4-0.9c-0.4-0.3-0.6-0.7-1-1.1
				C710.9,744.6,711.4,743.6,712.1,743.8z M694.7,723.5c5.5-3.2,12.6-0.7,14.5,5.4c1.4,4.5,0.4,10.1-1,14.5
				c-1.1,3.3-3.8,5.5-7.4,5.6c-1.4,0.1-2.9,0-4.2-0.5c-2.8-1.1-4.8-3-5.2-6c-0.1-0.5-0.1-1.1,0-1.6c-0.4-0.9-0.8-1.9-1.1-2.9
				C688.6,732.6,689.6,726.5,694.7,723.5z M682,723.3c2.3-0.1,4.7,0,6.8,0.6c0.7,0.2,1,0.8,1.1,1.4c0,0.3-0.1,0.5-0.2,0.7
				c-0.2,0.5-0.8,0.7-1.3,0.7c-2.3,0-4.6-0.6-6.7-1.4C680.6,724.9,680.8,723.3,682,723.3z"/>
			<path fill="#4F3D1D" d="M613.6,788.9C613.6,788.9,613.6,788.9,613.6,788.9c0.8,0.7,1.8,1.5,3,2.3c5.9,4.3,16.4,10.4,28.7,17.2
				c2.9,1.6,5.9,3.2,8.9,4.9c21,11.3,45.3,23.6,61.8,31.8c-1.9,16,3.3,39.1,14.6,51.9c5.1,5.8,11.5,9.4,19.1,9.3
				c2.9-0.1,5.7-0.5,8.3-1.2c17.6-4.9,28.4-23.9,28.9-41.5c8.9-0.8,19-4.2,26.7-7.3c7.3-3,12.5-5.7,12.5-5.7s0,0-3.7-9
				c-3.7,2.7-7.1,5-10.3,6.8c-11.3,6.6-19.7,8.6-25.4,8.7c-0.8-6.4-3.1-12.4-7.1-16.9c-4.9-5.6-37-20.3-55.2-11.4
				c-3,1.5-5.2,4.6-6.7,8.8c-19.3-7.7-38.7-18.4-54.9-28.3c-3.2-1.9-6.2-3.8-9.1-5.7c-7.6-4.8-14.2-9.1-19.4-12.6
				c5.8,1.1,12.3,1.9,19.6,2.4c36.1,2.4,80.5,0.3,115.3-10.8c24.7-7.9,44.6-20.3,53.2-38.8c-14.1,3.2-30.5,6.4-47.9,9.5
				c-49.2,8.6-107.1,15.6-147.4,14.7c-0.8,0-1.6,0-2.3-0.1c-1.8-0.1-3.6-0.1-5.3-0.2c-15.3-0.8-27.5-2.9-34.6-6.9
				c0,0,1.7,6.6,10.3,13.8c3.2,2.7,7.4,5.5,12.9,8.1C608.4,784,610.2,786,613.6,788.9z"/>
			<path fill="#FFFFFF" d="M690.3,737.9c0.3,1,0.7,2,1.1,2.9c0,0.5-0.1,1.1,0,1.6c0.4,3.1,2.4,4.9,5.2,6c1.4,0.5,2.8,0.6,4.2,0.5
				c3.5-0.2,6.3-2.3,7.4-5.6c1.4-4.3,2.3-10,1-14.5c-1.9-6.2-9-8.6-14.5-5.4C689.6,726.5,688.6,732.6,690.3,737.9z"/>
			<path fill="#FFFFFF" d="M714.2,728.8c0.2-0.7,0.5-1.2,1.1-1.7c0.6-0.5,1.2-0.7,1.9-1c1.6-0.7,0.8-3.3-0.9-3.2
				c-2.7,0.1-5.1,2.9-4.8,5.6C711.7,730,713.7,730.4,714.2,728.8z"/>
			<path fill="#FFFFFF" d="M712.4,746.3c0.4,0.3,0.9,0.6,1.4,0.9c0.9,0.6,1.7,1.3,2.8,1.4c0.9,0.1,1.5-1.1,1-1.8
				c-0.6-0.9-1.6-1.3-2.5-1.8c-0.4-0.2-0.9-0.5-1.3-0.7c-0.6-0.3-1-0.3-1.6-0.4c-0.8-0.2-1.3,0.7-0.8,1.3
				C711.7,745.5,712,745.9,712.4,746.3z"/>
			<path fill="#FFFFFF" d="M685.3,751.4c0.6-0.2,1.1-0.2,1.7-0.4c0.6-0.2,1.1-0.5,1.7-0.8c1.1-0.6,2.2-1.1,3.1-1.9
				c0.9-0.8-0.1-2.3-1.2-2c-1.2,0.4-2.2,1.1-3.3,1.7c-0.5,0.3-1,0.6-1.5,1c-0.5,0.4-0.8,0.8-1.3,1.2
				C684.1,750.8,684.7,751.6,685.3,751.4z"/>
			<path fill="#FFFFFF" d="M681.7,725.3c2.1,0.8,4.4,1.4,6.7,1.4c0.5,0,1.1-0.3,1.3-0.7c0.1-0.2,0.2-0.5,0.2-0.7
				c-0.1-0.7-0.4-1.2-1.1-1.4c-2.2-0.6-4.6-0.7-6.8-0.6C680.8,723.3,680.6,724.9,681.7,725.3z"/>
		</g>
		<g>
			<g>
				<g>
					<path fill="#987948" d="M171.1,1073.5c-1-0.4-1.9-0.8-2.9-1.2c-0.3,0.4-0.5,0.8-0.8,1.2c0.5,0.6,1,1.2,1.5,1.8
						C169.6,1074.7,170.4,1074.1,171.1,1073.5z"/>
				</g>
				<g>
					<path fill="#987948" d="M367.1,1079.2c-2.7,4.3-5.6,8.1-8.6,11.6c1.5,1.4,3,2.8,4.5,4.3c1.3,0,2.6,0,3.9,0.1
						c2.3,0.1,4.7,0.6,6.3,2.1c2.3,2.3,2,6.3,0.2,9.1c13.9,16.6,26,37.2,34.6,59.7c8.5-3.8,16.7-9.2,23.4-15.8
						c-9.2-16.7-20.7-31.9-35.3-44.5c16.7-4.4,32.9-11.8,47.2-21.5c-2.5-4.5-5.1-8.9-7.8-13.2
						C408.8,1083.2,382.3,1087.2,367.1,1079.2z"/>
				</g>
				<g>
					<path fill="#987948" d="M208.6,1103.2c-10.6,15.4-20,32-27.4,49.3c6.4,5.4,14,9.6,22.2,12.5c6.7-18.6,15.4-35.9,25.4-50.7
						c-2.3-0.6-4.4-1.7-4.7-3.8c-0.5-2.8,2.3-5,4.9-6.3c3.2-1.6,6.7-2.8,10.2-3.5c2.5-3,5.1-5.9,7.8-8.5c-3.5-3.8-6.5-7.9-8.9-12.3
						c-15.5,7.4-41,4.3-66.9-6.3c-0.7,0.7-1.3,1.4-1.8,2.3C179.7,1088,195,1097.2,208.6,1103.2z"/>
				</g>
				<g>
					<path fill="#AD8852" d="M431.4,1150.2c-6.7,6.5-14.9,12-23.4,15.8c-6.1,2.7-12.4,4.6-18.4,5.4c-5.7,0.7-11.6,0.5-17.4,0.6
						c-5.1,0.1-10.2,0.4-15.1,1.9c-2.2,0.7-4.4,1.7-6.3,3.1c-7.4,5-12.2,14-8.1,21.5c-9.2,2.4-15.6,12.3-14.5,21.7
						c37.3-1.3,72.2-5.2,102.9-11.2c6.8-6.4,12.4-14.2,16.3-23.5c2.6,6.4,1.3,12.8,0,19.3c6.4-5.1,10.3-11.6,12.8-19.3
						c0,5.5,0.7,11,1.5,16.5c2-0.5,4-1.1,5.9-1.6c14.5-27.8,14.6-60.9,7.8-92.1c-11.4-12.5-24.1-23.8-37.2-34.4
						c4.1,3.3,6.8,9.6,8.3,16.7c-1.1-2-2.1-4.1-3.2-6c-14.3,9.6-30.4,17.1-47.2,21.5C410.6,1118.4,422.2,1133.5,431.4,1150.2z"/>
				</g>
				<g>
					<path fill="#FFD684" d="M253.8,1099.9c-0.8-0.1-1.7-0.2-2.5-0.2C252.1,1100.2,252.9,1100.3,253.8,1099.9z"/>
				</g>
				<g>
					<path fill="#FFD684" d="M274.5,1124.5c1.5-0.4,3-0.7,4.5-1.1c1.3-0.3,2.7-0.5,4.1-0.7c-3.8-2.6-7.8-4.1-15.4-4.8
						c-12-1.1-23.9-2.1-35.9-3.2c-0.9-0.1-1.9-0.2-2.8-0.4c-10.1,14.8-18.7,32.1-25.4,50.7c10.2,3.6,21.3,5.3,32.2,5.4
						c0.3-8.8,2.3-17.3,7.2-24.7C249.9,1134.7,261.9,1127.8,274.5,1124.5z"/>
				</g>
				<g>
					<path fill="#FFD684" d="M365.4,1112.3c-6,3.1-14.2,7.8-23.1,12.1c4.6,1.5,9,3.6,12.8,6.7c11.8,9.5,15.8,25.5,17.1,40.8
						c5.8-0.1,11.7,0.2,17.4-0.6c6-0.8,12.3-2.6,18.4-5.4c-8.7-22.5-20.7-43.1-34.6-59.7c0,0-0.1,0.1-0.1,0.1
						C371.4,1109.1,368.3,1110.8,365.4,1112.3z"/>
				</g>
				<g>
					<path fill="#FFD684" d="M239.2,1100.6c4-0.8,8-1.2,12.1-0.9c-1.6-1-2.7-3.4-2.2-5.5c-0.7-0.7-1.4-1.4-2.1-2.1
						C244.3,1094.8,241.7,1097.6,239.2,1100.6z"/>
				</g>
				<g>
					<path fill="#FFD684" d="M358.5,1090.7c-1.8,2.1-3.7,4-5.6,5.8c3.3-0.9,6.7-1.4,10.1-1.5C361.5,1093.5,360,1092.1,358.5,1090.7z
						"/>
				</g>
				<g>
					<path fill="#0E8341" d="M251.3,1099.7c0.8,0.1,1.7,0.1,2.5,0.2C252.9,1100.3,252.1,1100.2,251.3,1099.7
						c-4-0.3-8.1,0.1-12.1,0.9c-3.5,0.8-7,1.9-10.2,3.5c-2.6,1.3-5.4,3.5-4.9,6.3c0.4,2.2,2.5,3.3,4.7,3.8c0.9,0.2,1.9,0.4,2.8,0.4
						c12,1.1,23.9,2.1,35.9,3.2c7.6,0.7,11.6,2.2,15.4,4.8c9.9-1.6,20.1-1.7,30.1-1.6c2.5,0,5,0.1,7.5,0.2c7.4,0.3,14.8,1,21.6,3.2
						c9-4.3,17.2-9,23.1-12.1c3-1.5,6-3.2,7.9-5.9c0,0,0.1-0.1,0.1-0.1c1.8-2.7,2.1-6.8-0.2-9.1c-1.6-1.6-4-2-6.3-2.1
						c-1.3-0.1-2.6-0.1-3.9-0.1c-3.4,0.1-6.8,0.6-10.1,1.5c-32.5,30.1-79,22-103.8-2.3C248.6,1096.3,249.7,1098.8,251.3,1099.7z"/>
				</g>
				<g>
					<path fill="#F4782D" d="M279,1123.4c-1.5,0.3-3,0.7-4.5,1.1c-12.5,3.3-24.6,10.2-31.7,21.1c-4.8,7.5-6.9,15.9-7.2,24.7
						c0.9,0,1.7,0,2.6,0c6.3-0.1,12.8-0.8,18.9,0.3c0.4-3.6,0.9-7.3,1.5-11C261.2,1145.7,268.5,1133,279,1123.4z"/>
				</g>
				<g>
					<path fill="#DB6D28" d="M320.6,1121.3c-2.5-0.1-5-0.1-7.5-0.2c-10.1-0.1-20.2,0-30.1,1.6c-1.4,0.2-2.7,0.5-4.1,0.7
						c-10.5,9.6-17.8,22.3-20.4,36.2c-0.6,3.7-1.1,7.4-1.5,11c2.1,0.4,4.1,0.9,6.1,1.8c7.7,3.4,13.3,13.5,8.4,20.4
						c5.6,0.2,11,3.4,14.2,8c1.3,1.9,2.3,4,2.8,6.3c1,4.5-0.1,9.4-2.5,13.3c5.2,0.1,10.5,0.2,15.8,0.2c8.9,0,17.6-0.2,26.2-0.4
						c-1.1-9.3,5.3-19.3,14.5-21.7c-4.1-7.5,0.7-16.5,8.1-21.5C345.7,1155.9,336.3,1136.5,320.6,1121.3z"/>
				</g>
				<g>
					<path fill="#F4782D" d="M355,1131.1c-3.8-3.1-8.2-5.2-12.8-6.7c-6.8-2.2-14.2-2.9-21.6-3.2c15.7,15.3,25,34.6,30,55.6
						c2-1.3,4.1-2.4,6.3-3.1c4.9-1.5,10-1.8,15.1-1.9C370.8,1156.6,366.9,1140.7,355,1131.1z"/>
				</g>
				<g>
					<path fill="#AD8852" d="M125.1,1191.8c1.3-6.4,2.6-14.1,3.9-20.5c5.1,9,10.3,16.7,18,23.1c0-5.1,2.6-9,1.3-14.1
						c35.7,30.5,93.8,42,137.6,20.6c-3.2-4.6-8.6-7.8-14.2-8c4.9-6.9-0.7-17-8.4-20.4c-2-0.9-4-1.4-6.1-1.8
						c-6.1-1.1-12.6-0.4-18.9-0.3c-0.9,0-1.7,0-2.6,0c-10.9-0.1-22-1.8-32.2-5.4c-8.2-2.9-15.8-7-22.2-12.5
						c7.4-17.4,16.8-33.9,27.4-49.3c-13.6-6-28.9-15.2-39.3-27.4c0.6-0.8,1.2-1.6,1.8-2.3c0,0-0.1,0-0.1,0c-0.7,0.6-1.4,1.2-2.2,1.8
						c-0.5-0.6-1-1.2-1.5-1.8c-1.2,2-2.4,4-3.6,6.1c-8.4,7.1-16.5,14.6-24.1,22.5c-8.7,9-17.9,19.7-25.4,31.4
						C111.9,1153.5,114.6,1174.4,125.1,1191.8z"/>
				</g>
				<g>
					<path fill="#987948" d="M286,1220.4c2.4-3.9,3.5-8.8,2.5-13.3c-0.5-2.3-1.5-4.4-2.8-6.3c-43.8,21.4-101.9,9.9-137.6-20.6
						c1.3,5.1-1.3,9-1.3,14.1c-7.7-6.4-12.8-14.1-18-23.1c-1.3,6.4-2.6,14.1-3.9,20.5c-10.4-17.4-13.2-38.3-10.7-58.3
						c-10.6,16.5-17.7,34.9-15.1,53.6C142,1206,209.4,1218.8,286,1220.4z"/>
				</g>
				<g>
					<path fill="#987948" d="M460.1,1185.3c-2.6,7.7-6.4,14.1-12.8,19.3c1.3-6.4,2.6-12.8,0-19.3c-3.9,9.3-9.5,17.1-16.3,23.5
						c10.8-2.1,21-4.5,30.6-7C460.7,1196.3,460.1,1190.8,460.1,1185.3z"/>
				</g>
				<g>
					<path fill="#987948" d="M467.4,1200.2c16.8-4.8,31.6-10.3,43.9-16.4c1-22.9-11.6-46-26.1-64.1c-3.2-4-6.6-7.9-10-11.7
						C482,1139.3,482,1172.4,467.4,1200.2z"/>
				</g>
				<g>
					<path fill="#FFD684" d="M196.5,781.5c-10.9-11.7-38.9-19.2-48.7,4.1c-10.3,24.2,10.6,40.4,16.1,44.2
						C171.5,811.5,182.6,795.1,196.5,781.5z"/>
				</g>
				<g>
					<path fill="#FFD684" d="M438.2,830.5c7-5.2,24.2-20.8,14.6-43.1c-9.5-22.2-35.5-16.3-47.2-5.6
						C419.5,795.6,430.6,812.1,438.2,830.5z"/>
				</g>
				<g>
					<path fill="#C0975C" d="M494.6,907.5c-2.2-0.3,1.4-2.2-2.1-3.2c-11.6-13.8-26.6-24.6-43.8-31c-1.1-12.1-3.7-23.7-7.5-34.7
						c3.6-2.4,8-5.8,13.1-10.6c23.9-21.8,4.4-64.6-23.1-68c-14.4-1.8-25.4,6.8-32.7,15.3c-26.1-22.9-60.3-36.7-97.7-36.7
						c-37.3,0-71.5,13.8-97.6,36.6c-7.2-9.1-18.7-18.9-34-17c-27.5,3.4-47,46.2-23.1,68c5.9,5.4,10.8,9.1,14.7,11.5
						c-4,11.3-6.6,23.2-7.8,35.6c-17.6,6.6-32.9,17.7-44.6,32c-2,0.5-3.3,5.6-4.7,5.8c-18.3,27.3-31.3,55.6-20.4,97.9
						c0.6-4.8,7.8-7.2,7.8-7.2s-4.9,21.4,2.5,27c-0.1-4.5,4.8-7.8,4.9-6.2c2.8,16.3,44.9,35.5,46.9,41.8c0.7-0.9,0.5-2.5-0.1-4.1
						c7.5,4.6,15.2,8.7,23,12c1,0.4,1.9,0.8,2.9,1.2c0,0,0.1,0,0.1,0c25.9,10.7,51.5,13.7,66.9,6.3c2.4,4.4,5.4,8.5,8.9,12.3
						c0.7,0.7,1.4,1.4,2.1,2.1c24.8,24.3,71.3,32.4,103.8,2.3c1.9-1.8,3.8-3.7,5.6-5.8c3.1-3.5,5.9-7.3,8.6-11.6
						c15.2,8,41.7,4,68.3-8.1c8.7-4,17.3-8.8,25.6-14.3c-1.3,2.2-3.2,5.9-1.9,7.5c1.9-6.2,44.1-25.5,46.9-41.8
						c0.2-1.5,5,1.8,4.9,6.2c7.4-5.6,2.5-27,2.5-27s7.2,2.5,7.8,7.2C532.1,966.6,512.9,934.7,494.6,907.5z M380.2,915.4
						c-14.2,4.1-30.7-9.7-36.9-31c-6.2-21.2,0.3-41.8,14.4-46c14.2-4.1,30.7,9.7,36.9,31C400.9,890.7,394.4,911.2,380.2,915.4z
						 M452.8,787.4c9.5,22.3-7.6,37.9-14.6,43.1c-7.6-18.4-18.7-34.9-32.6-48.7C417.4,771,443.4,765.2,452.8,787.4z M357.8,796
						c12.4,4.7,24,14.8,25.2,28c-4.2-4.3-8.5-8.6-13.5-12c-10.2-6.9-24.3-12.6-36.6-12.5C341.1,794.8,348.6,792.5,357.8,796z
						 M235.2,799.1c8.5-5.5,19.2-7.7,29.2-6.1l5.9,6.4c-19.8-0.2-35.5,15.2-52.5,23.9C220.3,813.5,226.7,804.7,235.2,799.1z
						 M240.4,838.5c14.2,4.1,20.7,24.7,14.4,46c-6.2,21.2-22.7,35.1-36.9,31c-14.2-4.1-20.7-24.7-14.4-46
						C209.7,848.2,226.3,834.3,240.4,838.5z M147.7,785.5c9.9-23.2,37.9-15.7,48.7-4.1c-13.8,13.7-25,30-32.6,48.2
						C158.3,825.9,137.4,809.7,147.7,785.5z M513.6,976.1c-25.5-2.5-50.6-4.6-76.3-2.6c-7.5,0.6-14.9,1.5-22.3,2.6
						c0.5,2.8,0.8,5.6,0.8,8.4c0,5.8-0.8,11.5-2.3,16.8c2.2-0.2,4.4-0.4,6.5-0.6c14.1-1,29.5-1.2,43.3,2.4c0.7,0.2,0.5,1.3-0.2,1.2
						c-14.1-0.8-27.8-2.6-41.9-1.7c-2.8,0.2-5.6,0.4-8.4,0.8c-1.6,4.9-3.8,9.6-6.5,13.9c-7.1,19-19.6,35.9-35.9,47.9
						c1.8-3.2,1.5-7.5-0.7-10.5c-7,5.3-14,10.7-21,16c2.3-3.4,3.3-7.7,2.7-11.8c-9.3,13.3-21.2,25.9-37,29.8
						c-16.4,4.1-33.5-2.3-48.8-9.5c-12.4-5.8-24.4-12.3-36.1-19.4c1.4,3.6,1.6,7.7,0.8,11.5c-13.4-13-25.3-27.6-35.3-43.3
						c-3.6-5.6-7-12.3-7.5-18.7c-0.2-0.5-0.5-1.1-0.7-1.6c-7.2,1.2-14.2,3.2-20.3,4.6c-15.7,3.9-30.3,10.3-45.5,15.5
						c-1.5,0.5-2.2-1.7-1-2.4c15.1-9.4,33.9-14.6,51.2-18.4c4.5-1,9.3-2.1,14.3-3c-2.1-6.2-3.2-12.8-3.2-19.6c0-1.1,0-2.1,0.1-3.2
						c-5.1,0.2-10.2,0.5-15.3,1.1c-24.3,2.7-47.1,10.4-69.6,19.8c-1.2,0.5-1.9-1.4-0.9-2.1c24.9-15.2,55.8-23,86.3-23.6
						c1.4-8.1,4.9-16,9.8-23.4c-25.8-7.7-51.8-12.7-78.9-15.9c-1.4-0.2-1.4-2.2,0-2.2c27.4-0.3,55.5,4.9,81.6,14.2
						c14.6-19.4,38.9-33.9,60.9-33.9c0.4,0,0.9,0,1.3,0c0,0,0,0,0,0c8.8-11,23.8-18.2,40.8-18.2c17,0,31.9,7.2,40.8,18.2
						c0,0,0,0,0,0.1c0.8,0,1.7-0.1,2.5-0.1c21.9,0,46.1,14.4,60.7,33.7c13.2-5,27.3-8.3,40.8-10.4c20.2-3.2,41-4.1,61.1-0.2
						c1.4,0.3,1,2.5-0.3,2.4c-20.8-1.4-41.5-1.8-62.1,1.8c-12.8,2.2-24.8,6-36.7,10.4c4.2,6.3,7.3,13,9,19.9
						c6.9-1.1,13.7-1.9,20.6-2.5c26-2.3,53.3-2.2,78.9,3.6C515,974.3,514.7,976.2,513.6,976.1z"/>
				</g>
				<g>
					<path fill="#AD8852" d="M354,1046.3c-11,0-21.3-2.9-30.2-7.9l-2.4,20.1c-0.6,5.3-4.4,9.7-9.7,9.7h-3.2c-4.5,0-8.2-3.2-9.3-7.4
						c-1.1,4.2-4.8,7.4-9.3,7.4h-3.2c-5.3,0-9-4.4-9.7-9.7l-2.4-20.1c-8.9,5-19.2,7.9-30.2,7.9c-25.3,0-47-15.2-56.6-36.9
						c0.5,6.4,3.9,13.1,7.5,18.7c10,15.7,21.9,30.3,35.3,43.3c0.8-3.8,0.6-7.8-0.8-11.5c11.7,7.1,23.7,13.5,36.1,19.4
						c15.3,7.2,32.4,13.5,48.8,9.5c15.7-3.9,27.7-16.6,37-29.8c0.6,4.1-0.3,8.4-2.7,11.8c7-5.3,14-10.7,21-16
						c2.2,3,2.5,7.3,0.7,10.5c16.3-12,28.9-29,35.9-47.9C395.4,1034.7,376.1,1046.3,354,1046.3z"/>
				</g>
				<g>
					<path fill="#1C1B15" d="M264.5,793.1c-10-1.7-20.7,0.5-29.2,6.1c-8.5,5.5-14.9,14.4-17.5,24.2c17-8.7,32.7-24,52.5-23.9
						L264.5,793.1z"/>
				</g>
				<g>
					<path fill="#1C1B15" d="M383.1,824c-1.2-13.2-12.9-23.3-25.2-28c-9.2-3.5-16.7-1.2-24.9,3.5c12.4-0.1,26.5,5.5,36.6,12.5
						C374.6,815.4,378.8,819.7,383.1,824z"/>
				</g>
				<g>
					<path fill="#FFFDFA" d="M308.4,1068.2h3.2c5.3,0,9-4.4,9.7-9.7l2.4-20.1c-9.1-5.1-16.8-12.5-22.3-21.3l-2.4,43.7
						C300.2,1065,303.9,1068.2,308.4,1068.2z"/>
				</g>
				<g>
					<path fill="#FFFDFA" d="M286.5,1068.2h3.2c4.5,0,8.2-3.2,9.3-7.4l-3-42.8c-5.5,8.4-12.9,15.5-21.7,20.4l2.4,20.1
						C277.5,1063.8,281.2,1068.2,286.5,1068.2z"/>
				</g>
				<g>
					<path fill="#B2B2B2" d="M301.5,1017.1c-0.9-1.4-1.7-2.8-2.4-4.2c-0.9,1.8-1.9,3.5-3,5.1l3,42.8L301.5,1017.1z"/>
				</g>
				<g>
					<path fill="#FFD684" d="M397,979.4c-10.6,2.2-21.1,6.3-31.7,8.5c-0.6,3.1-2.7,5.4-4.9,5.2c-2.4-0.2-4.1-3.3-3.8-6.8
						c0.3-3.5,2.6-6.2,5-6c1.8,0.2,3.2,1.9,3.7,4.2c10-4.3,21.8-6.3,32-8.5c5.6-1.2,11.3-2.2,17-3.1c-1.7-6.9-4.9-13.6-9-19.9
						c-5.4,2-10.7,4.1-16.1,6.3c0.3,2.4-0.6,4.6-2.3,5.3c-2.3,0.9-5.2-1-6.5-4.3s-0.5-6.7,1.7-7.6c1.9-0.8,4.3,0.5,5.8,3
						c4.7-2.5,9.6-4.6,14.6-6.5c-14.6-19.3-38.8-33.7-60.7-33.7c-0.8,0-1.7,0-2.5,0.1c2.5,5,1.9,9.3-0.8,13.7
						c-5.7,9.4-26,29.7-40,31.3c-14-1.6-34.3-21.9-40-31.3c-2.7-4.4-3.3-8.7-0.8-13.7c-0.4,0-0.9,0-1.3,0c-22,0-46.3,14.5-60.9,33.9
						c4.7,1.7,9.3,3.5,13.9,5.4c1.5-1.8,3.5-2.7,5.1-2c1.7,0.7,2.6,2.9,2.3,5.3c1.4,0.7,0.5,2.9-0.8,2.8c-1.4,3-4.1,4.7-6.2,3.8
						c-2-0.8-2.9-3.7-2-6.7c-5-1.7-9.9-3.3-14.9-4.8c-4.9,7.4-8.3,15.3-9.8,23.4c16.8-0.3,33.6,1.5,49.3,5.4
						c0.7-0.9,1.6-1.6,2.6-1.7c1.8-0.2,3.6,1.3,4.5,3.6c0.3,0.1,0.6,0.2,0.9,0.3c1.7,0.5,1.2,2.9-0.3,3c0,3.1-1.6,5.7-3.8,5.9
						c-2.4,0.2-4.7-2.4-5-6c-0.1-0.6-0.1-1.1,0-1.7c-16.1-3-32.4-4.6-48.7-4.1c-0.1,1.1-0.1,2.1-0.1,3.2c0,6.9,1.1,13.4,3.2,19.6
						c9.2-1.6,18.7-2.1,27,1.1c0.4-2.5,1.8-4.3,3.7-4.5c2.4-0.2,4.7,2.4,5,6c0.3,3.5-1.3,6.6-3.8,6.8c-2,0.2-3.9-1.6-4.7-4.2
						c-7.7-3.3-16.9-3-25.9-1.5c0.2,0.5,0.4,1.1,0.7,1.6c9.6,21.7,31.3,36.9,56.6,36.9c11,0,21.3-2.9,30.2-7.9
						c8.8-4.9,16.3-12,21.7-20.4c1.1-1.7,2.1-3.4,3-5.1c0.8,1.5,1.6,2.9,2.4,4.2c5.5,8.8,13.2,16.2,22.3,21.3
						c8.9,5,19.2,7.9,30.2,7.9c22.1,0,41.4-11.6,52.4-29c2.7-4.3,4.9-9,6.5-13.9c-9.8,1.1-19.4,2.9-28.9,5.4
						c-0.7,2.8-2.7,4.8-4.8,4.6c-2.4-0.2-4.1-3.3-3.8-6.8c0.3-3.5,2.6-6.2,5-6c2.3,0.2,3.9,3,3.8,6.2c9.6-2.7,19.4-4.5,29.3-5.6
						c1.5-5.4,2.3-11,2.3-16.8c0-2.8-0.3-5.6-0.8-8.4C409,977,403,978.1,397,979.4z"/>
				</g>
				<g>
					<path fill="#534121" d="M258.5,929.1c5.7,9.4,26,29.7,40,31.3c14-1.6,34.3-21.9,40-31.3c2.7-4.4,3.2-8.7,0.8-13.7
						c0,0,0,0,0-0.1c-8.8-11-23.8-18.2-40.8-18.2c-17,0-31.9,7.2-40.8,18.2c0,0,0,0,0,0C255.2,920.4,255.8,924.7,258.5,929.1z
						 M289.6,903c7.9-0.8,14.5,0.5,14.7,2.8c0.1,2.4-6.2,4.9-14.1,5.7c-7.9,0.8-14.5-0.5-14.7-2.8
						C275.3,906.3,281.6,903.8,289.6,903z"/>
				</g>
				<g>
					<path fill="#FFFFFF" d="M290.1,911.5c7.9-0.8,14.3-3.4,14.1-5.7c-0.1-2.4-6.7-3.6-14.7-2.8c-7.9,0.8-14.3,3.4-14.1,5.7
						C275.6,911.1,282.2,912.3,290.1,911.5z"/>
				</g>
				<g>
					<path fill="#FFFFFF" d="M218,915.4c14.2,4.1,30.7-9.7,36.9-31c6.2-21.2-0.3-41.8-14.4-46c-14.2-4.1-30.7,9.7-36.9,31
						C197.3,890.7,203.8,911.2,218,915.4z M210.8,874.4c5.9-13.8,18.1-21.8,27.3-17.9c9.2,3.9,11.9,18.2,6,32
						c-5.9,13.8-18.1,21.8-27.3,17.9C207.7,902.5,205,888.1,210.8,874.4z"/>
				</g>
				<g>
					<path fill="#534121" d="M216.9,906.4c9.2,3.9,21.4-4.1,27.3-17.9c5.9-13.8,3.1-28.1-6-32c-9.2-3.9-21.4,4.1-27.3,17.9
						C205,888.1,207.7,902.5,216.9,906.4z M213.8,875.7c4.8-11.3,14.8-17.8,22.3-14.6c7.5,3.2,9.7,14.9,5,26.2
						c-4.8,11.3-14.8,17.8-22.3,14.6C211.3,898.7,209,886.9,213.8,875.7z"/>
				</g>
				<g>
					<path fill="#C0975C" d="M218.8,901.9c7.5,3.2,17.5-3.3,22.3-14.6c4.8-11.3,2.6-23-5-26.2c-7.5-3.2-17.5,3.3-22.3,14.6
						C209,886.9,211.3,898.7,218.8,901.9z M223.3,869.3c2.1,0,3.9,0.9,5.2,2.4c1.9-0.7,3.8-0.8,5.6-0.1c4.8,2.1,6.3,9.6,3.2,16.9
						c-3.1,7.2-9.5,11.5-14.3,9.4c-4.7-2-6.2-9.2-3.4-16.3c-1.8-1.2-2.9-3.3-2.9-5.6C216.6,872.3,219.6,869.3,223.3,869.3z"/>
				</g>
				<g>
					<path fill="#1C1B15" d="M223.3,882.8c-1.4,0-2.7-0.4-3.8-1.2c-2.8,7.1-1.3,14.3,3.4,16.3c4.8,2.1,11.3-2.1,14.3-9.4
						c3.1-7.2,1.7-14.8-3.2-16.9c-1.7-0.7-3.7-0.7-5.6,0.1c1,1.2,1.6,2.7,1.6,4.3C230.1,879.8,227,882.8,223.3,882.8z"/>
				</g>
				<g>
					<path fill="#FFFFFF" d="M219.5,881.6c1.1,0.7,2.4,1.2,3.8,1.2c3.7,0,6.8-3,6.8-6.8c0-1.7-0.6-3.2-1.6-4.3
						c-1.2-1.5-3.1-2.4-5.2-2.4c-3.7,0-6.8,3-6.8,6.8C216.6,878.3,217.7,880.4,219.5,881.6z"/>
				</g>
				<g>
					<path fill="#FFFFFF" d="M357.7,838.5c-14.2,4.1-20.7,24.7-14.4,46c6.2,21.2,22.7,35.1,36.9,31c14.2-4.1,20.7-24.7,14.4-46
						C388.4,848.2,371.9,834.3,357.7,838.5z M381.3,906.4c-9.2,3.9-21.4-4.1-27.3-17.9c-5.9-13.8-3.1-28.1,6-32
						c9.2-3.9,21.4,4.1,27.3,17.9C393.2,888.1,390.5,902.5,381.3,906.4z"/>
				</g>
				<g>
					<path fill="#534121" d="M360.1,856.5c-9.2,3.9-11.9,18.2-6,32c5.9,13.8,18.1,21.8,27.3,17.9c9.2-3.9,11.9-18.2,6-32
						C381.5,860.6,369.3,852.6,360.1,856.5z M379.4,901.9c-7.5,3.2-17.5-3.3-22.3-14.6c-4.8-11.3-2.6-23,5-26.2
						c7.5-3.2,17.5,3.3,22.3,14.6C389.1,886.9,386.9,898.7,379.4,901.9z"/>
				</g>
				<g>
					<path fill="#C0975C" d="M362,861c-7.5,3.2-9.7,14.9-5,26.2c4.8,11.3,14.8,17.8,22.3,14.6c7.5-3.2,9.7-14.9,5-26.2
						C379.5,864.4,369.5,857.8,362,861z M381.6,876c0,2.3-1.2,4.4-2.9,5.6c2.8,7.1,1.3,14.3-3.4,16.3c-4.8,2.1-11.3-2.1-14.3-9.4
						c-3.1-7.2-1.7-14.8,3.2-16.9c1.7-0.7,3.7-0.7,5.6,0.1c1.2-1.5,3.1-2.4,5.2-2.4C378.6,869.3,381.6,872.3,381.6,876z"/>
				</g>
				<g>
					<path fill="#1C1B15" d="M368.1,876c0-1.7,0.6-3.2,1.6-4.3c-1.9-0.7-3.8-0.8-5.6-0.1c-4.8,2.1-6.3,9.6-3.2,16.9
						c3.1,7.2,9.5,11.5,14.3,9.4c4.7-2,6.2-9.2,3.4-16.3c-1.1,0.7-2.4,1.2-3.8,1.2C371.1,882.8,368.1,879.8,368.1,876z"/>
				</g>
				<g>
					<path fill="#FFFFFF" d="M369.7,871.7c-1,1.2-1.6,2.7-1.6,4.3c0,3.7,3,6.8,6.8,6.8c1.4,0,2.7-0.4,3.8-1.2
						c1.8-1.2,2.9-3.3,2.9-5.6c0-3.7-3-6.8-6.8-6.8C372.8,869.3,370.9,870.2,369.7,871.7z"/>
				</g>
				<g>
					<path fill="#C0975C" d="M207.7,957.9c-0.8,3,0,5.8,2,6.7c2.1,0.9,4.8-0.8,6.2-3.8c-0.1,0-0.3,0-0.4-0.1
						C213,959.7,210.4,958.8,207.7,957.9z"/>
				</g>
				<g>
					<path fill="#C0975C" d="M216.8,957.9c0.3-2.5-0.6-4.6-2.3-5.3c-1.7-0.7-3.7,0.2-5.1,2C211.9,955.7,214.3,956.8,216.8,957.9
						C216.8,957.9,216.8,957.9,216.8,957.9z"/>
				</g>
				<g>
					<path fill="#C0975C" d="M235,980.3c-1,0.1-1.9,0.7-2.6,1.7c2.4,0.6,4.7,1.2,7.1,1.9C238.5,981.6,236.8,980.1,235,980.3z"/>
				</g>
				<g>
					<path fill="#C0975C" d="M239.5,987.1c-2.8-0.6-5.5-1.2-8.3-1.7c0,0.5,0,1.1,0,1.7c0.3,3.5,2.6,6.2,5,6c2.2-0.2,3.8-2.8,3.8-5.9
						C239.9,987.1,239.7,987.1,239.5,987.1z"/>
				</g>
				<g>
					<path fill="#C0975C" d="M214.8,1010.2c-0.6-0.3-1.3-0.6-2-0.9c0.8,2.6,2.7,4.4,4.7,4.2c2.4-0.2,4.1-3.3,3.8-6.8
						c-0.3-3.5-2.6-6.2-5-6c-1.9,0.2-3.3,2-3.7,4.5c1.4,0.5,2.7,1.2,4,1.9C218.6,1008.3,216.8,1011.3,214.8,1010.2z"/>
				</g>
				<g>
					<path fill="#C0975C" d="M383.3,958.1c1.5-0.9,3-1.7,4.6-2.5c-1.5-2.4-3.9-3.8-5.8-3c-2.3,0.9-3,4.3-1.7,7.6s4.2,5.2,6.5,4.3
						c1.7-0.7,2.6-2.8,2.3-5.3c-1.5,0.6-3,1.2-4.6,1.8C382.8,961.8,381.8,959,383.3,958.1z"/>
				</g>
				<g>
					<path fill="#C0975C" d="M361.6,980.3c-2.4-0.2-4.7,2.4-5,6c-0.3,3.5,1.3,6.6,3.8,6.8c2.2,0.2,4.3-2.1,4.9-5.2
						c-1.6,0.3-3.2,0.6-4.8,0.8c-0.9,0.1-1.5-1-0.6-1.5c1.7-1,3.5-1.9,5.4-2.7C364.8,982.2,363.5,980.4,361.6,980.3z"/>
				</g>
				<g>
					<path fill="#C0975C" d="M377.8,1010.6c-1,0.3-1.4-1.3-0.4-1.6c2.3-0.7,4.5-1.4,6.8-2c0.1-3.3-1.5-6-3.8-6.2
						c-2.4-0.2-4.7,2.4-5,6c-0.3,3.5,1.3,6.6,3.8,6.8c2.1,0.2,4.1-1.8,4.8-4.6C381.9,1009.4,379.8,1010,377.8,1010.6z"/>
				</g>
				<g>
					<path fill="#534121" d="M215.6,960.7c0.1,0,0.3,0.1,0.4,0.1c1.4,0.1,2.2-2.1,0.8-2.8c0,0,0,0,0,0c-2.4-1.1-4.9-2.2-7.4-3.3
						c-4.5-1.9-9.2-3.7-13.9-5.4c-26.1-9.3-54.2-14.5-81.6-14.2c-1.4,0-1.4,2,0,2.2c27.1,3.1,53.2,8.1,78.9,15.9
						c5,1.5,9.9,3.1,14.9,4.8C210.4,958.8,213,959.7,215.6,960.7z"/>
				</g>
				<g>
					<path fill="#534121" d="M231.2,985.4c2.8,0.5,5.5,1.1,8.3,1.7c0.2,0,0.3,0,0.5,0c1.5-0.1,2-2.5,0.3-3c-0.3-0.1-0.6-0.2-0.9-0.3
						c-2.3-0.7-4.7-1.3-7.1-1.9c-15.7-3.9-32.5-5.8-49.3-5.4c-30.6,0.6-61.4,8.4-86.3,23.6c-1.1,0.6-0.4,2.6,0.9,2.1
						c22.4-9.3,45.3-17.1,69.6-19.8c5.1-0.6,10.2-0.9,15.3-1.1C198.8,980.9,215.1,982.4,231.2,985.4z"/>
				</g>
				<g>
					<path fill="#534121" d="M212.8,1009.3c0.7,0.3,1.3,0.6,2,0.9c2,1.1,3.8-1.9,1.8-3.1c-1.3-0.8-2.6-1.4-4-1.9
						c-8.3-3.2-17.8-2.7-27-1.1c-5,0.8-9.8,2-14.3,3c-17.2,3.8-36,9-51.2,18.4c-1.2,0.8-0.5,2.9,1,2.4c15.3-5.2,29.8-11.6,45.5-15.5
						c6-1.5,13.1-3.4,20.3-4.6C196,1006.3,205.2,1006,212.8,1009.3z"/>
				</g>
				<g>
					<path fill="#534121" d="M387.9,955.6c-1.5,0.8-3.1,1.6-4.6,2.5c-1.5,0.9-0.5,3.7,1.3,3c1.5-0.6,3-1.2,4.6-1.8
						c5.4-2.2,10.7-4.3,16.1-6.3c11.9-4.4,23.9-8.1,36.7-10.4c20.6-3.6,41.3-3.2,62.1-1.8c1.4,0.1,1.7-2.1,0.3-2.4
						c-20.1-3.8-41-3-61.1,0.2c-13.5,2.2-27.6,5.4-40.8,10.4C397.5,951,392.6,953.1,387.9,955.6z"/>
				</g>
				<g>
					<path fill="#534121" d="M513.8,974.1c-25.6-5.8-52.9-5.9-78.9-3.6c-6.9,0.6-13.8,1.4-20.6,2.5c-5.7,0.9-11.4,1.9-17,3.1
						c-10.2,2.2-22,4.2-32,8.5c-1.9,0.8-3.7,1.7-5.4,2.7c-0.9,0.5-0.2,1.6,0.6,1.5c1.6-0.2,3.2-0.5,4.8-0.8
						c10.6-2.2,21.1-6.2,31.7-8.5c6-1.3,12-2.4,18-3.3c7.4-1.1,14.8-2,22.3-2.6c25.7-2,50.7,0.1,76.3,2.6
						C514.7,976.2,515,974.3,513.8,974.1z"/>
				</g>
				<g>
					<path fill="#534121" d="M384.2,1007c-2.3,0.6-4.6,1.3-6.8,2c-1,0.3-0.6,1.9,0.4,1.6c2-0.6,4.1-1.2,6.1-1.7
						c9.5-2.5,19.2-4.3,28.9-5.4c2.8-0.3,5.6-0.6,8.4-0.8c14.2-0.9,27.8,0.9,41.9,1.7c0.7,0,0.9-1.1,0.2-1.2
						c-13.8-3.6-29.2-3.4-43.3-2.4c-2.2,0.2-4.4,0.4-6.5,0.6C403.6,1002.4,393.8,1004.3,384.2,1007z"/>
				</g>
			</g>
			<g>
				<path fill="#534121" d="M227.7,950.6c-21.4,0-38.8-17.4-38.8-38.8s17.4-38.8,38.8-38.8s38.8,17.4,38.8,38.8
					S249.1,950.6,227.7,950.6z M227.7,883c-15.9,0-28.8,12.9-28.8,28.8s12.9,28.8,28.8,28.8s28.8-12.9,28.8-28.8
					S243.6,883,227.7,883z"/>
			</g>
			<g>
				<path fill="#534121" d="M368.1,950.6c-21.4,0-38.8-17.4-38.8-38.8s17.4-38.8,38.8-38.8s38.8,17.4,38.8,38.8
					S389.5,950.6,368.1,950.6z M368.1,883c-15.9,0-28.8,12.9-28.8,28.8s12.9,28.8,28.8,28.8s28.8-12.9,28.8-28.8S384,883,368.1,883z
					"/>
			</g>
		</g>
		<g>
			<g>
				<g>
					<path fill="#E26543" d="M552.2,179.6c-16-17.5-23.3-40-24-63.3c0-0.2,0-0.5,0-0.7c-52,87.5-60,177.4-16.3,206.7l308.6,195.4
						c-39.7-26.6-36.8-103.1,3-182.5C724.5,299,625.4,261.2,552.2,179.6z"/>
					<path fill="#F36C49" d="M736.6-14c-46.8-31.3-135,18.6-197.1,111.5c-4,6-7.8,12-11.4,18c0,0.2,0,0.5,0,0.7
						c0.7,23.3,8,45.9,24,63.3c73.2,81.6,172.3,119.4,271.3,155.6c7.1-14.1,15.3-28.3,24.6-42.3c56.9-85.1,135.8-134.1,184.6-117.6
						l0,0L736.6-14z"/>
					<path fill="#B45034" d="M1045.3,181.4c-3.9-2.6-8.1-4.6-12.5-6.1c-48.8-16.5-127.7,32.5-184.6,117.6
						c-62.1,92.8-74.4,193.5-27.6,224.7c46.8,31.3,135-18.6,197.1-111.5S1092.1,212.7,1045.3,181.4z"/>
				</g>
				<path fill="#CEA05E" d="M1361.9,606.5c-3-2-5-6-8-8c-14-8-28-13-40-24c-11-8-24-9-36-16c-3-2-5-6-8-8c-11-7-22-13-33-18
					c-25-14-47-30-72-44c-36-22-73-40-99-74c-1,0-3,0-4,0c-6-6-7-14-9-20c-4-10-12-19-17-29c-1.5-3.3-2.5-6.8-3-10.4
					c-33.3-19.7-59.9-35.5-75-44.9c-68,11.7-52,78-52,78s460,295,504,302.6c28.5,4.9,45.8-2.9,56.4-15c-7.7-4.6-15.5-9.7-23.4-15.3
					C1414.9,641.5,1390.9,622.5,1361.9,606.5z"/>
			</g>
			<path fill="#ECB66B" d="M1481.9,615.8c0,0-296.1-170.4-449-260.6c0.5,3.6,1.4,7.1,3,10.4c5,10,13,19,17,29c2,6,3,14,9,20
				c1,0,3,0,4,0c26,34,63,52,99,74c25,14,47,30,72,44c11,5,22,11,33,18c3,2,5,6,8,8c12,7,25,8,36,16c12,11,26,16,40,24c3,2,5,6,8,8
				c29,16,53,35,81,54c7.9,5.6,15.6,10.7,23.4,15.3C1485.8,653.3,1481.9,615.8,1481.9,615.8z"/>
		</g>
	</g>
</g>
</svg>
