<?xml version="1.0" encoding="UTF-8" standalone="no"?>
<svg
   xmlns:dc="http://purl.org/dc/elements/1.1/"
   xmlns:cc="http://creativecommons.org/ns#"
   xmlns:rdf="http://www.w3.org/1999/02/22-rdf-syntax-ns#"
   xmlns:svg="http://www.w3.org/2000/svg"
   xmlns="http://www.w3.org/2000/svg"
   xmlns:sodipodi="http://sodipodi.sourceforge.net/DTD/sodipodi-0.dtd"
   xmlns:inkscape="http://www.inkscape.org/namespaces/inkscape"
   width="133.03mm"
   height="21.742mm"
   version="1.1"
   viewBox="0 0 133.03 21.742"
   id="svg6"
   sodipodi:docname="obstacle.svg"
   inkscape:version="0.92.3 (2405546, 2018-03-11)">
  <metadata
     id="metadata12">
    <rdf:RDF>
      <cc:Work
         rdf:about="">
        <dc:format>image/svg+xml</dc:format>
        <dc:type
           rdf:resource="http://purl.org/dc/dcmitype/StillImage" />
      </cc:Work>
    </rdf:RDF>
  </metadata>
  <defs
     id="defs10" />
  <sodipodi:namedview
     pagecolor="#ffffff"
     bordercolor="#666666"
     borderopacity="1"
     objecttolerance="10"
     gridtolerance="10"
     guidetolerance="10"
     inkscape:pageopacity="0"
     inkscape:pageshadow="2"
     inkscape:window-width="711"
     inkscape:window-height="480"
     id="namedview8"
     showgrid="false"
     inkscape:zoom="0.76174861"
     inkscape:cx="251.39527"
     inkscape:cy="41.087245"
     inkscape:window-x="0"
     inkscape:window-y="0"
     inkscape:window-maximized="0"
     inkscape:current-layer="svg6" />
  <g
     transform="translate(-9.8349 -133.69)"
     id="g4"
     style="fill:#ffffff">
    <path
       transform="matrix(.26458 0 0 .26458 9.8349 112.01)"
       d="m0 81.924v0.07617c0-0.02547 0.0038348-0.05071 0.0039062-0.07617zm0 0.07617v82.1h251.4c-123.5 0-226.1-28.999-247.4-67.299 0.014586-0.02623 0.032213-0.0519 0.046875-0.07813-2.6543-4.7761-4.0469-9.6965-4.0469-14.723zm251.4 82.1h251.4v-82.176h-6e-3c7e-5 0.02547 4e-3 0.05069 4e-3 0.07617 0 5.0254-1.3933 9.9453-4.0469 14.721 0.0149 0.02673 0.0321 0.05334 0.0469 0.08008-21.3 38.3-123.9 67.299-247.4 67.299z"
       stroke-width="25.296"
       id="path2"
       style="fill:#ffffff" />
  </g>
</svg>
